<svg width="253" height="70" viewBox="0 0 253 70" fill="none" xmlns="http://www.w3.org/2000/svg">
<path d="M6.976 22H0.96V0.559999H20.128V5.968H6.976V9.168H19.648V14.544H6.976V22ZM27.726 22H21.71V5.872H27.342V10.096H27.662C28.11 7.44 29.774 5.552 32.974 5.552C36.526 5.552 37.934 7.888 37.934 11.12V14.32H31.918V12.432C31.918 11.088 31.406 10.608 29.838 10.608C28.206 10.608 27.726 11.088 27.726 12.368V22ZM48.202 22.32C42.73 22.32 38.89 19.984 38.89 13.936C38.89 8.688 42.698 5.552 48.074 5.552C53.642 5.552 57.194 8.336 57.194 13.52C57.194 14.064 57.162 14.48 57.098 15.056H44.458C44.554 17.008 45.418 17.552 47.978 17.552C50.41 17.552 51.05 17.136 51.05 16.176V15.824H57.066V16.208C57.066 19.792 53.642 22.32 48.202 22.32ZM47.946 10.16C45.738 10.16 44.81 10.64 44.554 12.016H51.37C51.146 10.64 50.186 10.16 47.946 10.16ZM65.8758 22.32C61.1398 22.32 58.4838 19.184 58.4838 13.936C58.4838 8.72 61.2038 5.552 66.1318 5.552C69.9078 5.552 71.8278 7.024 72.3398 10.224H72.6598V5.872H78.2918V27.44H72.2758V17.84H71.9558C71.4758 20.528 69.6838 22.32 65.8758 22.32ZM64.5638 13.936C64.5638 16.08 65.5238 16.848 68.3078 16.848C70.9958 16.848 72.2758 16.4 72.2758 14.128V13.904C72.2758 11.568 70.9958 11.056 68.3078 11.056C65.5238 11.056 64.5638 11.792 64.5638 13.936ZM86.834 22.32C82.322 22.32 80.21 19.696 80.21 16.208V5.872H86.226V14C86.226 16.24 87.09 16.944 89.842 16.944C92.626 16.944 93.298 16.272 93.298 14.192V5.872H99.314V22H93.682V17.104H93.362C93.01 19.792 91.218 22.32 86.834 22.32ZM110.108 22.32C104.636 22.32 100.796 19.984 100.796 13.936C100.796 8.688 104.604 5.552 109.98 5.552C115.548 5.552 119.1 8.336 119.1 13.52C119.1 14.064 119.068 14.48 119.004 15.056H106.364C106.46 17.008 107.324 17.552 109.884 17.552C112.316 17.552 112.956 17.136 112.956 16.176V15.824H118.972V16.208C118.972 19.792 115.548 22.32 110.108 22.32ZM109.852 10.16C107.644 10.16 106.716 10.64 106.46 12.016H113.276C113.052 10.64 112.092 10.16 109.852 10.16ZM126.726 22H120.71V5.872H126.342V10.768H126.662C127.014 8.08 128.774 5.552 133.094 5.552C137.446 5.552 139.494 8.176 139.494 11.664V22H133.478V13.872C133.478 11.632 132.646 10.928 130.022 10.928C127.366 10.928 126.726 11.6 126.726 13.68V22ZM153.337 22H149.113C145.081 22 142.681 20.048 142.681 15.856V10.8H140.312V5.872H142.681V3.088H148.697V5.872H153.337V10.8H148.697V14.992C148.697 16.272 149.081 16.592 150.457 16.592H153.337V22ZM160.789 22H154.773V0.559999H160.789V22ZM166.262 27.44H163.35V22H168.022C168.502 22 168.886 21.936 169.142 21.808L161.43 5.872H168.278L171.062 12.208L172.214 15.92H172.63L173.686 12.144L176.086 5.872H182.806L175.158 22.64C173.43 26.448 170.966 27.44 166.262 27.44ZM193.401 22H186.649L195.897 0.559999H204.505L213.785 22H206.873L205.241 18.032H195.065L193.401 22ZM198.585 9.616L197.337 12.624H203.033L201.785 9.616L200.377 6H199.961L198.585 9.616ZM223.101 22.32C217.405 22.32 214.365 20.112 214.365 16.4V16.272H220.381V16.592C220.381 17.488 220.957 17.584 223.133 17.584C225.213 17.584 225.533 17.36 225.533 16.816C225.533 16.304 225.277 16.176 223.773 16.016L219.101 15.504C215.773 15.152 213.981 13.584 213.981 10.864C213.981 8.016 216.253 5.552 222.301 5.552C227.901 5.552 230.877 7.568 230.877 11.536V11.664H224.861V11.472C224.861 10.64 224.541 10.256 222.109 10.256C220.157 10.256 219.901 10.512 219.901 11.12C219.901 11.568 220.157 11.792 222.045 11.984L225.245 12.336C229.949 12.848 231.453 14.416 231.453 17.136C231.453 20.144 228.445 22.32 223.101 22.32ZM238.914 22H232.898V0.559999H238.914V11.472H241.762L245.314 5.872H252.418L246.69 13.712L252.322 22H245.218L241.826 16.848H238.914V22Z" fill="white"/>
<path d="M22.464 69.512H14.56L11.072 65.256C4.48 64.744 0.64 60.52 0.64 54.28C0.64 47.592 5.056 43.24 12.512 43.24C20.16 43.24 24.512 47.592 24.512 54.28C24.512 59.24 22.144 62.888 17.792 64.456L22.464 69.512ZM12.512 59.56C16.864 59.56 18.112 58.536 18.112 54.28C18.112 50.024 16.864 49 12.512 49C8.16 49 7.04 50.024 7.04 54.28C7.04 58.536 8.16 59.56 12.512 59.56ZM32.7403 65.32C28.2283 65.32 26.1163 62.696 26.1163 59.208V48.872H32.1323V57C32.1323 59.24 32.9963 59.944 35.7483 59.944C38.5323 59.944 39.2043 59.272 39.2043 57.192V48.872H45.2203V65H39.5883V60.104H39.2683C38.9163 62.792 37.1243 65.32 32.7403 65.32ZM56.0145 65.32C50.5425 65.32 46.7025 62.984 46.7025 56.936C46.7025 51.688 50.5105 48.552 55.8865 48.552C61.4545 48.552 65.0065 51.336 65.0065 56.52C65.0065 57.064 64.9745 57.48 64.9105 58.056H52.2705C52.3665 60.008 53.2305 60.552 55.7905 60.552C58.2225 60.552 58.8625 60.136 58.8625 59.176V58.824H64.8785V59.208C64.8785 62.792 61.4545 65.32 56.0145 65.32ZM55.7585 53.16C53.5505 53.16 52.6225 53.64 52.3665 55.016H59.1825C58.9585 53.64 57.9985 53.16 55.7585 53.16ZM75.2883 65.32C69.5923 65.32 66.5523 63.112 66.5523 59.4V59.272H72.5683V59.592C72.5683 60.488 73.1443 60.584 75.3203 60.584C77.4003 60.584 77.7203 60.36 77.7203 59.816C77.7203 59.304 77.4643 59.176 75.9603 59.016L71.2883 58.504C67.9603 58.152 66.1683 56.584 66.1683 53.864C66.1683 51.016 68.4403 48.552 74.4883 48.552C80.0883 48.552 83.0643 50.568 83.0643 54.536V54.664H77.0483V54.472C77.0483 53.64 76.7283 53.256 74.2963 53.256C72.3443 53.256 72.0883 53.512 72.0883 54.12C72.0883 54.568 72.3443 54.792 74.2323 54.984L77.4323 55.336C82.1363 55.848 83.6403 57.416 83.6403 60.136C83.6403 63.144 80.6323 65.32 75.2883 65.32ZM97.149 65H92.925C88.893 65 86.493 63.048 86.493 58.856V53.8H84.125V48.872H86.493V46.088H92.509V48.872H97.149V53.8H92.509V57.992C92.509 59.272 92.893 59.592 94.269 59.592H97.149V65ZM104.601 47.4H98.585V43.56H104.601V47.4ZM104.601 65H98.585V48.872H104.601V65ZM115.451 65.32C109.851 65.32 106.043 62.152 106.043 56.936C106.043 51.688 109.851 48.552 115.451 48.552C121.051 48.552 124.859 51.688 124.859 56.936C124.859 62.152 121.051 65.32 115.451 65.32ZM115.451 60.008C118.171 60.008 118.907 59.272 118.907 56.936C118.907 54.6 118.171 53.832 115.451 53.832C112.731 53.832 111.995 54.6 111.995 56.936C111.995 59.272 112.731 60.008 115.451 60.008ZM132.32 65H126.304V48.872H131.936V53.768H132.256C132.608 51.08 134.368 48.552 138.688 48.552C143.04 48.552 145.088 51.176 145.088 54.664V65H139.072V56.872C139.072 54.632 138.24 53.928 135.616 53.928C132.96 53.928 132.32 54.6 132.32 56.68V65Z" fill="#D434FE"/>
</svg>
