<svg width="158" height="44" viewBox="0 0 158 44" fill="none" xmlns="http://www.w3.org/2000/svg">
<path d="M4.5807 14H0.820703V0.6H12.8007V3.98H4.5807V5.98H12.5007V9.34H4.5807V14ZM17.5495 14H13.7895V3.92H17.3095V6.56H17.5095C17.7895 4.9 18.8295 3.72 20.8295 3.72C23.0495 3.72 23.9295 5.18 23.9295 7.2V9.2H20.1695V8.02C20.1695 7.18 19.8495 6.88 18.8695 6.88C17.8495 6.88 17.5495 7.18 17.5495 7.98V14ZM30.347 14.2C26.927 14.2 24.527 12.74 24.527 8.96C24.527 5.68 26.907 3.72 30.267 3.72C33.747 3.72 35.967 5.46 35.967 8.7C35.967 9.04 35.947 9.3 35.907 9.66H28.007C28.067 10.88 28.607 11.22 30.207 11.22C31.727 11.22 32.127 10.96 32.127 10.36V10.14H35.887V10.38C35.887 12.62 33.747 14.2 30.347 14.2ZM30.187 6.6C28.807 6.6 28.227 6.9 28.067 7.76H32.327C32.187 6.9 31.587 6.6 30.187 6.6ZM41.393 14.2C38.433 14.2 36.773 12.24 36.773 8.96C36.773 5.7 38.473 3.72 41.553 3.72C43.913 3.72 45.113 4.64 45.433 6.64H45.633V3.92H49.153V17.4H45.393V11.4H45.193C44.893 13.08 43.773 14.2 41.393 14.2ZM40.573 8.96C40.573 10.3 41.173 10.78 42.913 10.78C44.593 10.78 45.393 10.5 45.393 9.08V8.94C45.393 7.48 44.593 7.16 42.913 7.16C41.173 7.16 40.573 7.62 40.573 8.96ZM54.492 14.2C51.672 14.2 50.352 12.56 50.352 10.38V3.92H54.112V9C54.112 10.4 54.652 10.84 56.372 10.84C58.112 10.84 58.532 10.42 58.532 9.12V3.92H62.292V14H58.772V10.94H58.572C58.352 12.62 57.232 14.2 54.492 14.2ZM69.0384 14.2C65.6184 14.2 63.2184 12.74 63.2184 8.96C63.2184 5.68 65.5984 3.72 68.9584 3.72C72.4384 3.72 74.6584 5.46 74.6584 8.7C74.6584 9.04 74.6384 9.3 74.5984 9.66H66.6984C66.7584 10.88 67.2984 11.22 68.8984 11.22C70.4184 11.22 70.8184 10.96 70.8184 10.36V10.14H74.5784V10.38C74.5784 12.62 72.4384 14.2 69.0384 14.2ZM68.8784 6.6C67.4984 6.6 66.9184 6.9 66.7584 7.76H71.0184C70.8784 6.9 70.2784 6.6 68.8784 6.6ZM79.4245 14H75.6645V3.92H79.1845V6.98H79.3845C79.6045 5.3 80.7045 3.72 83.4045 3.72C86.1245 3.72 87.4045 5.36 87.4045 7.54V14H83.6445V8.92C83.6445 7.52 83.1245 7.08 81.4845 7.08C79.8245 7.08 79.4245 7.5 79.4245 8.8V14ZM96.056 14H93.416C90.896 14 89.396 12.78 89.396 10.16V7H87.916V3.92H89.396V2.18H93.156V3.92H96.056V7H93.156V9.62C93.156 10.42 93.396 10.62 94.256 10.62H96.056V14ZM100.714 14H96.9535V0.6H100.714V14ZM104.134 17.4H102.314V14H105.234C105.534 14 105.774 13.96 105.934 13.88L101.114 3.92H105.394L107.134 7.88L107.854 10.2H108.114L108.774 7.84L110.274 3.92H114.474L109.694 14.4C108.614 16.78 107.074 17.4 104.134 17.4ZM121.096 14H116.876L122.656 0.6H128.036L133.836 14H129.516L128.496 11.52H122.136L121.096 14ZM124.336 6.26L123.556 8.14H127.116L126.336 6.26L125.456 4H125.196L124.336 6.26ZM139.659 14.2C136.099 14.2 134.199 12.82 134.199 10.5V10.42H137.959V10.62C137.959 11.18 138.319 11.24 139.679 11.24C140.979 11.24 141.179 11.1 141.179 10.76C141.179 10.44 141.019 10.36 140.079 10.26L137.159 9.94C135.079 9.72 133.959 8.74 133.959 7.04C133.959 5.26 135.379 3.72 139.159 3.72C142.659 3.72 144.519 4.98 144.519 7.46V7.54H140.759V7.42C140.759 6.9 140.559 6.66 139.039 6.66C137.819 6.66 137.659 6.82 137.659 7.2C137.659 7.48 137.819 7.62 138.999 7.74L140.999 7.96C143.939 8.28 144.879 9.26 144.879 10.96C144.879 12.84 142.999 14.2 139.659 14.2ZM149.542 14H145.782V0.6H149.542V7.42H151.322L153.542 3.92H157.982L154.402 8.82L157.922 14H153.482L151.362 10.78H149.542V14Z" fill="white"/>
<path d="M47.4443 43.82H42.5043L40.3243 41.16C36.2043 40.84 33.8043 38.2 33.8043 34.3C33.8043 30.12 36.5643 27.4 41.2243 27.4C46.0043 27.4 48.7243 30.12 48.7243 34.3C48.7243 37.4 47.2443 39.68 44.5243 40.66L47.4443 43.82ZM41.2243 37.6C43.9443 37.6 44.7243 36.96 44.7243 34.3C44.7243 31.64 43.9443 31 41.2243 31C38.5043 31 37.8043 31.64 37.8043 34.3C37.8043 36.96 38.5043 37.6 41.2243 37.6ZM53.867 41.2C51.047 41.2 49.727 39.56 49.727 37.38V30.92H53.487V36C53.487 37.4 54.027 37.84 55.747 37.84C57.487 37.84 57.907 37.42 57.907 36.12V30.92H61.667V41H58.147V37.94H57.947C57.727 39.62 56.607 41.2 53.867 41.2ZM68.4134 41.2C64.9934 41.2 62.5934 39.74 62.5934 35.96C62.5934 32.68 64.9734 30.72 68.3334 30.72C71.8134 30.72 74.0334 32.46 74.0334 35.7C74.0334 36.04 74.0134 36.3 73.9734 36.66H66.0734C66.1334 37.88 66.6734 38.22 68.2734 38.22C69.7934 38.22 70.1934 37.96 70.1934 37.36V37.14H73.9534V37.38C73.9534 39.62 71.8134 41.2 68.4134 41.2ZM68.2534 33.6C66.8734 33.6 66.2934 33.9 66.1334 34.76H70.3934C70.2534 33.9 69.6534 33.6 68.2534 33.6ZM80.4595 41.2C76.8995 41.2 74.9995 39.82 74.9995 37.5V37.42H78.7595V37.62C78.7595 38.18 79.1195 38.24 80.4795 38.24C81.7795 38.24 81.9795 38.1 81.9795 37.76C81.9795 37.44 81.8195 37.36 80.8795 37.26L77.9595 36.94C75.8795 36.72 74.7595 35.74 74.7595 34.04C74.7595 32.26 76.1795 30.72 79.9595 30.72C83.4595 30.72 85.3195 31.98 85.3195 34.46V34.54H81.5595V34.42C81.5595 33.9 81.3595 33.66 79.8395 33.66C78.6195 33.66 78.4595 33.82 78.4595 34.2C78.4595 34.48 78.6195 34.62 79.7995 34.74L81.7995 34.96C84.7395 35.28 85.6795 36.26 85.6795 37.96C85.6795 39.84 83.7995 41.2 80.4595 41.2ZM94.1224 41H91.4824C88.9624 41 87.4624 39.78 87.4624 37.16V34H85.9824V30.92H87.4624V29.18H91.2224V30.92H94.1224V34H91.2224V36.62C91.2224 37.42 91.4624 37.62 92.3224 37.62H94.1224V41ZM98.7799 30H95.0199V27.6H98.7799V30ZM98.7799 41H95.0199V30.92H98.7799V41ZM105.561 41.2C102.061 41.2 99.6809 39.22 99.6809 35.96C99.6809 32.68 102.061 30.72 105.561 30.72C109.061 30.72 111.441 32.68 111.441 35.96C111.441 39.22 109.061 41.2 105.561 41.2ZM105.561 37.88C107.261 37.88 107.721 37.42 107.721 35.96C107.721 34.5 107.261 34.02 105.561 34.02C103.861 34.02 103.401 34.5 103.401 35.96C103.401 37.42 103.861 37.88 105.561 37.88ZM116.104 41H112.344V30.92H115.864V33.98H116.064C116.284 32.3 117.384 30.72 120.084 30.72C122.804 30.72 124.084 32.36 124.084 34.54V41H120.324V35.92C120.324 34.52 119.804 34.08 118.164 34.08C116.504 34.08 116.104 34.5 116.104 35.8V41Z" fill="#D434FE"/>
</svg>
