<svg width="106" height="40" viewBox="0 0 106 40" fill="none" xmlns="http://www.w3.org/2000/svg">
<path d="M4.68031 14H0.920313V0.6H8.34031C11.5203 0.6 13.5203 2.42 13.5203 5.6C13.5203 8.78 11.5203 10.62 8.34031 10.62H4.68031V14ZM7.92031 3.98H4.68031V7.24H7.92031C9.24031 7.24 9.78031 6.98 9.78031 5.6C9.78031 4.24 9.24031 3.98 7.92031 3.98ZM18.0788 14H14.3188V3.92H17.8388V6.56H18.0388C18.3188 4.9 19.3588 3.72 21.3588 3.72C23.5788 3.72 24.4588 5.18 24.4588 7.2V9.2H20.6988V8.02C20.6988 7.18 20.3788 6.88 19.3988 6.88C18.3788 6.88 18.0788 7.18 18.0788 7.98V14ZM29.0163 3H25.2563V0.6H29.0163V3ZM29.0163 14H25.2563V3.92H29.0163V14ZM40.8772 14H29.9172V10.8L33.5572 8.36L35.6572 7.3V7.04L33.5572 7.2H30.2172V3.92H40.5772V7.12L36.6172 9.66L34.6572 10.66V10.92L36.6172 10.72H40.8772V14ZM47.3997 14.2C43.9797 14.2 41.5797 12.74 41.5797 8.96C41.5797 5.68 43.9597 3.72 47.3197 3.72C50.7997 3.72 53.0197 5.46 53.0197 8.7C53.0197 9.04 52.9997 9.3 52.9597 9.66H45.0597C45.1197 10.88 45.6597 11.22 47.2597 11.22C48.7797 11.22 49.1797 10.96 49.1797 10.36V10.14H52.9397V10.38C52.9397 12.62 50.7997 14.2 47.3997 14.2ZM47.2397 6.6C45.8597 6.6 45.2797 6.9 45.1197 7.76H49.3797C49.2397 6.9 48.6397 6.6 47.2397 6.6ZM59.4458 14.2C55.8858 14.2 53.9858 12.82 53.9858 10.5V10.42H57.7458V10.62C57.7458 11.18 58.1058 11.24 59.4658 11.24C60.7658 11.24 60.9658 11.1 60.9658 10.76C60.9658 10.44 60.8058 10.36 59.8658 10.26L56.9458 9.94C54.8658 9.72 53.7458 8.74 53.7458 7.04C53.7458 5.26 55.1658 3.72 58.9458 3.72C62.4458 3.72 64.3058 4.98 64.3058 7.46V7.54H60.5458V7.42C60.5458 6.9 60.3458 6.66 58.8258 6.66C57.6058 6.66 57.4458 6.82 57.4458 7.2C57.4458 7.48 57.6058 7.62 58.7858 7.74L60.7858 7.96C63.7258 8.28 64.6658 9.26 64.6658 10.96C64.6658 12.84 62.7858 14.2 59.4458 14.2ZM71.6217 14.2C69.3417 14.2 68.0617 13.16 68.0617 11.44C68.0617 10.02 69.0417 9 71.3217 8.78L75.4217 8.38V8.18C75.4217 7.16 74.9817 7 73.6417 7C72.4017 7 72.0217 7.24 72.0217 8.08V8.16H68.2617V8.12C68.2617 5.44 70.5017 3.72 73.9217 3.72C77.4417 3.72 79.1417 5.44 79.1417 8.26V14H75.6217V11.88H75.4217C75.0417 13.3 73.8017 14.2 71.6217 14.2ZM71.8417 11.2C71.8417 11.52 72.1617 11.58 72.7417 11.58C74.5617 11.58 75.3017 11.36 75.4017 10.46L72.3217 10.82C71.9817 10.86 71.8417 10.98 71.8417 11.2ZM84.0163 14H80.2563V3.92H83.7763V6.98H83.9763C84.1963 5.3 85.2963 3.72 87.9963 3.72C90.7163 3.72 91.9963 5.36 91.9963 7.54V14H88.2363V8.92C88.2363 7.52 87.7163 7.08 86.0763 7.08C84.4163 7.08 84.0163 7.5 84.0163 8.8V14ZM97.6878 14.2C94.6078 14.2 92.9078 12.22 92.9078 8.96C92.9078 5.68 94.5678 3.72 97.5278 3.72C99.9078 3.72 101.028 4.84 101.328 6.52H101.528V0.6H105.288V14H101.768V11.28H101.568C101.248 13.28 100.048 14.2 97.6878 14.2ZM96.7078 8.96C96.7078 10.3 97.3078 10.76 99.0478 10.76C100.728 10.76 101.528 10.44 101.528 8.98V8.84C101.528 7.42 100.728 7.14 99.0478 7.14C97.3078 7.14 96.7078 7.62 96.7078 8.96Z" fill="white"/>
<path d="M12.3756 39H8.61563V25.6H16.4356C19.9756 25.6 21.8356 27.08 21.8356 29.7C21.8356 31.82 20.7756 33.08 18.2156 33.4V33.6C19.5956 33.96 20.0356 34.62 20.5356 35.64L22.1956 39H17.8556L16.2556 35.72C15.7756 34.72 15.3756 34.44 13.9156 34.44H12.3756V39ZM12.3756 28.98V31.64H16.3956C17.4956 31.64 17.8956 31.44 17.8956 30.3C17.8956 29.24 17.4956 28.98 16.3956 28.98H12.3756ZM28.4153 39.2C24.9953 39.2 22.5953 37.74 22.5953 33.96C22.5953 30.68 24.9753 28.72 28.3353 28.72C31.8153 28.72 34.0353 30.46 34.0353 33.7C34.0353 34.04 34.0153 34.3 33.9753 34.66H26.0753C26.1353 35.88 26.6753 36.22 28.2753 36.22C29.7953 36.22 30.1953 35.96 30.1953 35.36V35.14H33.9553V35.38C33.9553 37.62 31.8153 39.2 28.4153 39.2ZM28.2553 31.6C26.8753 31.6 26.2953 31.9 26.1353 32.76H30.3953C30.2553 31.9 29.6553 31.6 28.2553 31.6ZM41.5814 39H36.8814L34.3414 28.92H38.2414L38.9614 32.56L39.3414 36.16H39.6014L40.4414 32.16L41.4414 28.92H46.2814L47.2814 32.16L48.1214 36.16H48.3814L48.7814 32.56L49.4814 28.92H53.3214L50.6614 39H45.9614L44.6614 34.96L43.9214 31.94H43.6614L42.9014 34.96L41.5814 39ZM57.0905 39.2C54.8105 39.2 53.5305 38.16 53.5305 36.44C53.5305 35.02 54.5105 34 56.7905 33.78L60.8905 33.38V33.18C60.8905 32.16 60.4505 32 59.1105 32C57.8705 32 57.4905 32.24 57.4905 33.08V33.16H53.7305V33.12C53.7305 30.44 55.9705 28.72 59.3905 28.72C62.9105 28.72 64.6105 30.44 64.6105 33.26V39H61.0905V36.88H60.8905C60.5105 38.3 59.2705 39.2 57.0905 39.2ZM57.3105 36.2C57.3105 36.52 57.6305 36.58 58.2105 36.58C60.0305 36.58 60.7705 36.36 60.8705 35.46L57.7905 35.82C57.4505 35.86 57.3105 35.98 57.3105 36.2ZM69.485 39H65.725V28.92H69.245V31.56H69.445C69.725 29.9 70.765 28.72 72.765 28.72C74.985 28.72 75.865 30.18 75.865 32.2V34.2H72.105V33.02C72.105 32.18 71.785 31.88 70.805 31.88C69.785 31.88 69.485 32.18 69.485 32.98V39ZM81.2425 39.2C78.1625 39.2 76.4625 37.22 76.4625 33.96C76.4625 30.68 78.1225 28.72 81.0825 28.72C83.4625 28.72 84.5825 29.84 84.8825 31.52H85.0825V25.6H88.8425V39H85.3225V36.28H85.1225C84.8025 38.28 83.6025 39.2 81.2425 39.2ZM80.2625 33.96C80.2625 35.3 80.8625 35.76 82.6025 35.76C84.2825 35.76 85.0825 35.44 85.0825 33.98V33.84C85.0825 32.42 84.2825 32.14 82.6025 32.14C80.8625 32.14 80.2625 32.62 80.2625 33.96ZM95.4614 39.2C91.9014 39.2 90.0014 37.82 90.0014 35.5V35.42H93.7614V35.62C93.7614 36.18 94.1214 36.24 95.4814 36.24C96.7814 36.24 96.9814 36.1 96.9814 35.76C96.9814 35.44 96.8214 35.36 95.8814 35.26L92.9614 34.94C90.8814 34.72 89.7614 33.74 89.7614 32.04C89.7614 30.26 91.1814 28.72 94.9614 28.72C98.4614 28.72 100.321 29.98 100.321 32.46V32.54H96.5614V32.42C96.5614 31.9 96.3614 31.66 94.8414 31.66C93.6214 31.66 93.4614 31.82 93.4614 32.2C93.4614 32.48 93.6214 32.62 94.8014 32.74L96.8014 32.96C99.7414 33.28 100.681 34.26 100.681 35.96C100.681 37.84 98.8014 39.2 95.4614 39.2Z" fill="#D434FE"/>
</svg>
