<svg width="306" height="19" viewBox="0 0 306 19" fill="none" xmlns="http://www.w3.org/2000/svg">
<path d="M8.984 15.432C9.96 15.432 10.8 15.272 11.504 14.952C12.208 14.616 12.944 14.088 13.712 13.368L15.536 15.24C13.76 17.208 11.6 18.192 9.056 18.192C6.528 18.192 4.424 17.376 2.744 15.744C1.08 14.112 0.248 12.048 0.248 9.552C0.248 7.056 1.096 4.976 2.792 3.312C4.504 1.648 6.656 0.816 9.248 0.816C11.856 0.816 14.032 1.776 15.776 3.696L13.976 5.664C13.176 4.896 12.416 4.36 11.696 4.056C10.992 3.752 10.16 3.6 9.2 3.6C7.504 3.6 6.08 4.152 4.928 5.256C3.776 6.344 3.2 7.744 3.2 9.456C3.2 11.152 3.768 12.576 4.904 13.728C6.056 14.864 7.416 15.432 8.984 15.432ZM32.3919 6.672C32.3919 9.44 31.1839 11.184 28.7679 11.904L33.1599 18H29.5599L25.5519 12.36H21.8319V18H18.9999V1.224H25.2399C27.7999 1.224 29.6319 1.656 30.7359 2.52C31.8399 3.384 32.3919 4.768 32.3919 6.672ZM25.3599 9.792C26.9599 9.792 28.0479 9.544 28.6239 9.048C29.1999 8.552 29.4879 7.76 29.4879 6.672C29.4879 5.568 29.1919 4.816 28.5999 4.416C28.0079 4 26.9519 3.792 25.4319 3.792H21.8319V9.792H25.3599ZM48.2448 1.224V3.888H39.2928V8.328H47.3328V10.848H39.2928V15.336H48.5328V18H36.4608V1.224H48.2448ZM54.5399 14.184L52.8599 18H49.8359L57.2279 1.224H60.2519L67.6439 18H64.6199L62.9399 14.184H54.5399ZM61.7879 11.568L58.7399 4.656L55.6919 11.568H61.7879ZM74.9999 3.816V18H72.1679V3.816H67.0799V1.224H80.0879V3.816H74.9999ZM94.9323 1.224V3.888H85.9803V8.328H94.0203V10.848H85.9803V15.336H95.2203V18H83.1483V1.224H94.9323ZM112.037 18H109.157V11.376L102.917 1.224H106.013L110.597 8.856L115.181 1.224H118.277L112.037 11.376V18ZM131.803 5.184C130.667 4 129.267 3.408 127.603 3.408C125.939 3.408 124.531 4 123.379 5.184C122.243 6.368 121.675 7.808 121.675 9.504C121.675 11.184 122.243 12.616 123.379 13.8C124.531 14.984 125.939 15.576 127.603 15.576C129.267 15.576 130.667 14.984 131.803 13.8C132.955 12.616 133.531 11.184 133.531 9.504C133.531 7.808 132.955 6.368 131.803 5.184ZM133.891 15.696C132.195 17.344 130.099 18.168 127.603 18.168C125.107 18.168 123.011 17.344 121.315 15.696C119.619 14.032 118.771 11.968 118.771 9.504C118.771 7.024 119.619 4.96 121.315 3.312C123.011 1.648 125.107 0.816 127.603 0.816C130.099 0.816 132.195 1.648 133.891 3.312C135.587 4.96 136.435 7.024 136.435 9.504C136.435 11.968 135.587 14.032 133.891 15.696ZM143.776 14.16C144.544 15.056 145.584 15.504 146.896 15.504C148.208 15.504 149.248 15.056 150.016 14.16C150.784 13.264 151.168 12.048 151.168 10.512V1.224H154V10.632C154 13.048 153.336 14.912 152.008 16.224C150.68 17.52 148.976 18.168 146.896 18.168C144.816 18.168 143.112 17.52 141.784 16.224C140.456 14.912 139.792 13.048 139.792 10.632V1.224H142.624V10.512C142.624 12.048 143.008 13.264 143.776 14.16ZM171.822 6.672C171.822 9.44 170.614 11.184 168.198 11.904L172.59 18H168.99L164.982 12.36H161.262V18H158.43V1.224H164.67C167.23 1.224 169.062 1.656 170.166 2.52C171.27 3.384 171.822 4.768 171.822 6.672ZM164.79 9.792C166.39 9.792 167.478 9.544 168.054 9.048C168.63 8.552 168.918 7.76 168.918 6.672C168.918 5.568 168.622 4.816 168.03 4.416C167.438 4 166.382 3.792 164.862 3.792H161.262V9.792H164.79ZM184.852 14.184L183.172 18H180.148L187.54 1.224H190.564L197.956 18H194.932L193.252 14.184H184.852ZM192.1 11.568L189.052 4.656L186.004 11.568H192.1ZM207.945 15.432C208.921 15.432 209.761 15.272 210.465 14.952C211.169 14.616 211.905 14.088 212.673 13.368L214.497 15.24C212.721 17.208 210.561 18.192 208.017 18.192C205.489 18.192 203.385 17.376 201.705 15.744C200.041 14.112 199.209 12.048 199.209 9.552C199.209 7.056 200.057 4.976 201.753 3.312C203.465 1.648 205.617 0.816 208.209 0.816C210.817 0.816 212.993 1.776 214.737 3.696L212.937 5.664C212.137 4.896 211.377 4.36 210.657 4.056C209.953 3.752 209.121 3.6 208.161 3.6C206.465 3.6 205.041 4.152 203.889 5.256C202.737 6.344 202.161 7.744 202.161 9.456C202.161 11.152 202.729 12.576 203.865 13.728C205.017 14.864 206.377 15.432 207.945 15.432ZM225.617 15.432C226.593 15.432 227.433 15.272 228.137 14.952C228.841 14.616 229.577 14.088 230.345 13.368L232.169 15.24C230.393 17.208 228.233 18.192 225.689 18.192C223.161 18.192 221.057 17.376 219.377 15.744C217.713 14.112 216.881 12.048 216.881 9.552C216.881 7.056 217.729 4.976 219.425 3.312C221.137 1.648 223.289 0.816 225.881 0.816C228.489 0.816 230.665 1.776 232.409 3.696L230.609 5.664C229.809 4.896 229.049 4.36 228.329 4.056C227.625 3.752 226.793 3.6 225.833 3.6C224.137 3.6 222.713 4.152 221.561 5.256C220.409 6.344 219.833 7.744 219.833 9.456C219.833 11.152 220.401 12.576 221.537 13.728C222.689 14.864 224.049 15.432 225.617 15.432ZM247.233 5.184C246.097 4 244.697 3.408 243.033 3.408C241.369 3.408 239.961 4 238.809 5.184C237.673 6.368 237.105 7.808 237.105 9.504C237.105 11.184 237.673 12.616 238.809 13.8C239.961 14.984 241.369 15.576 243.033 15.576C244.697 15.576 246.097 14.984 247.233 13.8C248.385 12.616 248.961 11.184 248.961 9.504C248.961 7.808 248.385 6.368 247.233 5.184ZM249.321 15.696C247.625 17.344 245.529 18.168 243.033 18.168C240.537 18.168 238.441 17.344 236.745 15.696C235.049 14.032 234.201 11.968 234.201 9.504C234.201 7.024 235.049 4.96 236.745 3.312C238.441 1.648 240.537 0.816 243.033 0.816C245.529 0.816 247.625 1.648 249.321 3.312C251.017 4.96 251.865 7.024 251.865 9.504C251.865 11.968 251.017 14.032 249.321 15.696ZM259.205 14.16C259.973 15.056 261.013 15.504 262.325 15.504C263.637 15.504 264.677 15.056 265.445 14.16C266.213 13.264 266.597 12.048 266.597 10.512V1.224H269.429V10.632C269.429 13.048 268.765 14.912 267.437 16.224C266.109 17.52 264.405 18.168 262.325 18.168C260.245 18.168 258.541 17.52 257.213 16.224C255.885 14.912 255.221 13.048 255.221 10.632V1.224H258.053V10.512C258.053 12.048 258.437 13.264 259.205 14.16ZM286.435 1.224H289.267V18H286.195L276.691 5.76V18H273.859V1.224H276.691L286.435 13.752V1.224ZM300.258 3.816V18H297.426V3.816H292.338V1.224H305.346V3.816H300.258Z" fill="white"/>
</svg>
