<svg width="66" height="14" viewBox="0 0 66 14" fill="none" xmlns="http://www.w3.org/2000/svg">
<path d="M3.27 11H0.45V0.95H6.315C8.97 0.95 10.365 2.06 10.365 4.025C10.365 5.615 9.57 6.56 7.65 6.8V6.95C8.685 7.22 9.015 7.715 9.39 8.48L10.635 11H7.38L6.18 8.54C5.82 7.79 5.52 7.58 4.425 7.58H3.27V11ZM3.27 3.485V5.48H6.285C7.11 5.48 7.41 5.33 7.41 4.475C7.41 3.68 7.11 3.485 6.285 3.485H3.27ZM15.2998 11.15C12.7348 11.15 10.9348 10.055 10.9348 7.22C10.9348 4.76 12.7198 3.29 15.2398 3.29C17.8498 3.29 19.5148 4.595 19.5148 7.025C19.5148 7.28 19.4998 7.475 19.4698 7.745H13.5448C13.5898 8.66 13.9948 8.915 15.1948 8.915C16.3348 8.915 16.6348 8.72 16.6348 8.27V8.105H19.4548V8.285C19.4548 9.965 17.8498 11.15 15.2998 11.15ZM15.1798 5.45C14.1448 5.45 13.7098 5.675 13.5898 6.32H16.7848C16.6798 5.675 16.2298 5.45 15.1798 5.45ZM23.6293 10.16C21.3793 10.16 20.1193 8.87 20.1193 6.71C20.1193 4.58 21.4693 3.29 23.7043 3.29C25.2343 3.29 26.2543 3.905 26.4643 5.21H26.6143V3.44H29.2543V9.725C29.2543 12.425 27.6493 13.7 24.7393 13.7C22.0993 13.7 20.5693 12.59 20.5693 10.61H23.3893C23.3893 11.225 23.4643 11.375 24.9343 11.375C26.1493 11.375 26.4343 11.195 26.4343 9.92V8.33H26.2843C26.0893 9.425 25.2943 10.16 23.6293 10.16ZM22.9693 6.71C22.9693 7.46 23.3293 7.745 24.6493 7.745C25.9093 7.745 26.4343 7.595 26.4343 6.8V6.695C26.4343 5.885 25.9093 5.72 24.6493 5.72C23.3293 5.72 22.9693 5.975 22.9693 6.71ZM32.977 2.75H30.157V0.95H32.977V2.75ZM32.977 11H30.157V3.44H32.977V11ZM37.9427 11.15C35.2727 11.15 33.8477 10.115 33.8477 8.375V8.315H36.6677V8.465C36.6677 8.885 36.9377 8.93 37.9577 8.93C38.9327 8.93 39.0827 8.825 39.0827 8.57C39.0827 8.33 38.9627 8.27 38.2577 8.195L36.0677 7.955C34.5077 7.79 33.6677 7.055 33.6677 5.78C33.6677 4.445 34.7327 3.29 37.5677 3.29C40.1927 3.29 41.5877 4.235 41.5877 6.095V6.155H38.7677V6.065C38.7677 5.675 38.6177 5.495 37.4777 5.495C36.5627 5.495 36.4427 5.615 36.4427 5.9C36.4427 6.11 36.5627 6.215 37.4477 6.305L38.9477 6.47C41.1527 6.71 41.8577 7.445 41.8577 8.72C41.8577 10.13 40.4477 11.15 37.9427 11.15ZM48.19 11H46.21C44.32 11 43.195 10.085 43.195 8.12V5.75H42.085V3.44H43.195V2.135H46.015V3.44H48.19V5.75H46.015V7.715C46.015 8.315 46.195 8.465 46.84 8.465H48.19V11ZM53.0781 11.15C50.5131 11.15 48.7131 10.055 48.7131 7.22C48.7131 4.76 50.4981 3.29 53.0181 3.29C55.6281 3.29 57.2931 4.595 57.2931 7.025C57.2931 7.28 57.2781 7.475 57.2481 7.745H51.3231C51.3681 8.66 51.7731 8.915 52.9731 8.915C54.1131 8.915 54.4131 8.72 54.4131 8.27V8.105H57.2331V8.285C57.2331 9.965 55.6281 11.15 53.0781 11.15ZM52.9581 5.45C51.9231 5.45 51.4881 5.675 51.3681 6.32H54.5631C54.4581 5.675 54.0081 5.45 52.9581 5.45ZM60.8677 11H58.0477V3.44H60.6877V5.42H60.8377C61.0477 4.175 61.8277 3.29 63.3277 3.29C64.9927 3.29 65.6527 4.385 65.6527 5.9V7.4H62.8327V6.515C62.8327 5.885 62.5927 5.66 61.8577 5.66C61.0927 5.66 60.8677 5.885 60.8677 6.485V11Z" fill="#D434FE"/>
</svg>
