<svg width="266" height="71" viewBox="0 0 266 71" fill="none" xmlns="http://www.w3.org/2000/svg">
<path d="M10.336 22.32C3.008 22.32 0.32 19.024 0.32 12.816V11.984H6.72V12.752C6.72 15.664 6.88 16.496 10.336 16.496C13.76 16.496 14.016 15.728 14.016 13.072V0.559999H20.416V13.136C20.416 19.12 17.696 22.32 10.336 22.32ZM28.834 22.32C24.322 22.32 22.21 19.696 22.21 16.208V5.872H28.226V14C28.226 16.24 29.09 16.944 31.842 16.944C34.626 16.944 35.298 16.272 35.298 14.192V5.872H41.314V22H35.682V17.104H35.362C35.01 19.792 33.218 22.32 28.834 22.32ZM50.4443 22.32C45.5163 22.32 42.7963 19.152 42.7963 13.936C42.7963 8.688 45.4523 5.552 50.1883 5.552C53.9963 5.552 55.7883 7.344 56.2683 10.032H56.5883V0.559999H62.6043V22H56.9723V17.648H56.6523C56.1403 20.848 54.2203 22.32 50.4443 22.32ZM48.8763 13.936C48.8763 16.08 49.8363 16.816 52.6203 16.816C55.3083 16.816 56.5883 16.304 56.5883 13.968V13.744C56.5883 11.472 55.3083 11.024 52.6203 11.024C49.8363 11.024 48.8763 11.792 48.8763 13.936ZM71.6905 20.208C66.8905 20.208 64.2025 17.456 64.2025 12.848C64.2025 8.304 67.0825 5.552 71.8505 5.552C75.1145 5.552 77.2905 6.864 77.7385 9.648H78.0585V5.872H83.6905V19.28C83.6905 25.04 80.2665 27.76 74.0585 27.76C68.4265 27.76 65.1625 25.392 65.1625 21.168H71.1785C71.1785 22.48 71.3385 22.8 74.4745 22.8C77.0665 22.8 77.6745 22.416 77.6745 19.696V16.304H77.3545C76.9385 18.64 75.2425 20.208 71.6905 20.208ZM70.2825 12.848C70.2825 14.448 71.0505 15.056 73.8665 15.056C76.5545 15.056 77.6745 14.736 77.6745 13.04V12.816C77.6745 11.088 76.5545 10.736 73.8665 10.736C71.0505 10.736 70.2825 11.28 70.2825 12.848ZM91.6323 4.4H85.6163V0.559999H91.6323V4.4ZM91.6323 22H85.6163V5.872H91.6323V22ZM99.5698 22H93.5538V5.872H99.1858V10.768H99.5058C99.8578 8.08 101.618 5.552 105.938 5.552C110.29 5.552 112.338 8.176 112.338 11.664V22H106.322V13.872C106.322 11.632 105.49 10.928 102.866 10.928C100.21 10.928 99.5698 11.6 99.5698 13.68V22ZM121.284 20.208C116.484 20.208 113.796 17.456 113.796 12.848C113.796 8.304 116.676 5.552 121.444 5.552C124.708 5.552 126.884 6.864 127.332 9.648H127.652V5.872H133.284V19.28C133.284 25.04 129.86 27.76 123.652 27.76C118.02 27.76 114.756 25.392 114.756 21.168H120.772C120.772 22.48 120.932 22.8 124.068 22.8C126.66 22.8 127.268 22.416 127.268 19.696V16.304H126.948C126.532 18.64 124.836 20.208 121.284 20.208ZM119.876 12.848C119.876 14.448 120.644 15.056 123.46 15.056C126.148 15.056 127.268 14.736 127.268 13.04V12.816C127.268 11.088 126.148 10.736 123.46 10.736C120.644 10.736 119.876 11.28 119.876 12.848ZM151.199 22.32C143.743 22.32 139.359 17.968 139.359 11.28C139.359 4.592 143.743 0.24 151.199 0.24C158.399 0.24 162.719 3.664 162.719 9.392V9.936H155.999V9.392C155.999 6.96 154.847 6 151.295 6C146.943 6 145.759 7.024 145.759 11.28C145.759 15.536 146.943 16.56 151.295 16.56C154.847 16.56 155.999 15.6 155.999 13.168V12.624H162.719V13.168C162.719 18.896 158.399 22.32 151.199 22.32ZM170.32 22H164.304V5.872H169.936V10.096H170.256C170.704 7.44 172.368 5.552 175.568 5.552C179.12 5.552 180.528 7.888 180.528 11.12V14.32H174.512V12.432C174.512 11.088 174 10.608 172.432 10.608C170.8 10.608 170.32 11.088 170.32 12.368V22ZM187.82 4.4H181.804V0.559999H187.82V4.4ZM187.82 22H181.804V5.872H187.82V22ZM201.805 22H197.581C193.549 22 191.149 20.048 191.149 15.856V10.8H188.781V5.872H191.149V3.088H197.165V5.872H201.805V10.8H197.165V14.992C197.165 16.272 197.549 16.592 198.925 16.592H201.805V22ZM212.233 22.32C206.761 22.32 202.921 19.984 202.921 13.936C202.921 8.688 206.729 5.552 212.105 5.552C217.673 5.552 221.225 8.336 221.225 13.52C221.225 14.064 221.193 14.48 221.129 15.056H208.489C208.585 17.008 209.449 17.552 212.009 17.552C214.441 17.552 215.081 17.136 215.081 16.176V15.824H221.097V16.208C221.097 19.792 217.673 22.32 212.233 22.32ZM211.977 10.16C209.769 10.16 208.841 10.64 208.585 12.016H215.401C215.177 10.64 214.217 10.16 211.977 10.16ZM228.851 22H222.835V5.872H228.467V10.096H228.787C229.235 7.44 230.899 5.552 234.099 5.552C237.651 5.552 239.059 7.888 239.059 11.12V14.32H233.043V12.432C233.043 11.088 232.531 10.608 230.963 10.608C229.331 10.608 228.851 11.088 228.851 12.368V22ZM246.351 4.4H240.335V0.559999H246.351V4.4ZM246.351 22H240.335V5.872H246.351V22ZM253.489 22.32C249.841 22.32 247.793 20.656 247.793 17.904C247.793 15.632 249.361 14 253.009 13.648L259.569 13.008V12.688C259.569 11.056 258.865 10.8 256.72 10.8C254.737 10.8 254.129 11.184 254.129 12.528V12.656H248.113V12.592C248.113 8.304 251.697 5.552 257.169 5.552C262.801 5.552 265.521 8.304 265.521 12.816V22H259.889V18.608H259.569C258.961 20.88 256.977 22.32 253.489 22.32ZM253.841 17.52C253.841 18.032 254.353 18.128 255.281 18.128C258.193 18.128 259.377 17.776 259.537 16.336L254.609 16.912C254.065 16.976 253.841 17.168 253.841 17.52Z" fill="white"/>
<path d="M6.976 65H0.96V43.56H6.976V51.528H11.296L16.512 43.56H23.712L16.288 54.088L23.552 65H16.352L11.36 57.384H6.976V65ZM33.3583 65.32C27.8863 65.32 24.0463 62.984 24.0463 56.936C24.0463 51.688 27.8543 48.552 33.2303 48.552C38.7983 48.552 42.3503 51.336 42.3503 56.52C42.3503 57.064 42.3183 57.48 42.2543 58.056H29.6143C29.7103 60.008 30.5743 60.552 33.1343 60.552C35.5663 60.552 36.2063 60.136 36.2063 59.176V58.824H42.2222V59.208C42.2222 62.792 38.7983 65.32 33.3583 65.32ZM33.1023 53.16C30.8943 53.16 29.9663 53.64 29.7103 55.016H36.5263C36.3023 53.64 35.3423 53.16 33.1023 53.16ZM47.512 70.44H44.6V65H49.272C49.752 65 50.136 64.936 50.392 64.808L42.68 48.872H49.528L52.312 55.208L53.464 58.92H53.88L54.936 55.144L57.336 48.872H64.056L56.408 65.64C54.68 69.448 52.216 70.44 47.512 70.44ZM74.3948 65.32C70.7468 65.32 68.6988 63.656 68.6988 60.904C68.6988 58.632 70.2668 57 73.9148 56.648L80.4748 56.008V55.688C80.4748 54.056 79.7708 53.8 77.6267 53.8C75.6428 53.8 75.0348 54.184 75.0348 55.528V55.656H69.0188V55.592C69.0188 51.304 72.6028 48.552 78.0748 48.552C83.7068 48.552 86.4268 51.304 86.4268 55.816V65H80.7948V61.608H80.4748C79.8668 63.88 77.8828 65.32 74.3948 65.32ZM74.7468 60.52C74.7468 61.032 75.2588 61.128 76.1868 61.128C79.0988 61.128 80.2828 60.776 80.4428 59.336L75.5148 59.912C74.9708 59.976 74.7468 60.168 74.7468 60.52ZM100.274 65H96.05C92.018 65 89.618 63.048 89.618 58.856V53.8H87.25V48.872H89.618V46.088H95.634V48.872H100.274V53.8H95.634V57.992C95.634 59.272 96.018 59.592 97.394 59.592H100.274V65ZM113.774 65H109.55C105.518 65 103.118 63.048 103.118 58.856V53.8H100.75V48.872H103.118V46.088H109.134V48.872H113.774V53.8H109.134V57.992C109.134 59.272 109.518 59.592 110.894 59.592H113.774V65ZM121.226 65H115.21V48.872H120.842V53.096H121.162C121.61 50.44 123.274 48.552 126.474 48.552C130.026 48.552 131.434 50.888 131.434 54.12V57.32H125.418V55.432C125.418 54.088 124.906 53.608 123.338 53.608C121.706 53.608 121.226 54.088 121.226 55.368V65ZM138.726 47.4H132.71V43.56H138.726V47.4ZM138.726 65H132.71V48.872H138.726V65ZM146.28 65H140.648V43.56H146.664V53.032H146.984C147.464 50.344 149.256 48.552 153.064 48.552C157.8 48.552 160.456 51.688 160.456 56.936C160.456 62.152 157.736 65.32 152.808 65.32C149.032 65.32 147.112 63.848 146.6 60.648H146.28V65ZM146.664 56.968C146.664 59.304 147.944 59.816 150.632 59.816C153.416 59.816 154.376 59.08 154.376 56.936C154.376 54.792 153.416 54.024 150.632 54.024C147.944 54.024 146.664 54.472 146.664 56.744V56.968ZM168.678 65.32C164.166 65.32 162.054 62.696 162.054 59.208V48.872H168.07V57C168.07 59.24 168.934 59.944 171.686 59.944C174.47 59.944 175.142 59.272 175.142 57.192V48.872H181.158V65H175.526V60.104H175.206C174.854 62.792 173.062 65.32 168.678 65.32ZM195.024 65H190.8C186.768 65 184.368 63.048 184.368 58.856V53.8H182V48.872H184.368V46.088H190.384V48.872H195.024V53.8H190.384V57.992C190.384 59.272 190.768 59.592 192.144 59.592H195.024V65ZM205.452 65.32C199.98 65.32 196.14 62.984 196.14 56.936C196.14 51.688 199.948 48.552 205.324 48.552C210.892 48.552 214.444 51.336 214.444 56.52C214.444 57.064 214.412 57.48 214.348 58.056H201.708C201.804 60.008 202.668 60.552 205.228 60.552C207.66 60.552 208.3 60.136 208.3 59.176V58.824H214.316V59.208C214.316 62.792 210.892 65.32 205.452 65.32ZM205.196 53.16C202.988 53.16 202.06 53.64 201.804 55.016H208.62C208.396 53.64 207.436 53.16 205.196 53.16ZM224.726 65.32C219.03 65.32 215.99 63.112 215.99 59.4V59.272H222.006V59.592C222.006 60.488 222.582 60.584 224.758 60.584C226.838 60.584 227.158 60.36 227.158 59.816C227.158 59.304 226.902 59.176 225.398 59.016L220.726 58.504C217.398 58.152 215.606 56.584 215.606 53.864C215.606 51.016 217.878 48.552 223.926 48.552C229.526 48.552 232.502 50.568 232.502 54.536V54.664H226.486V54.472C226.486 53.64 226.166 53.256 223.734 53.256C221.782 53.256 221.526 53.512 221.526 54.12C221.526 54.568 221.782 54.792 223.67 54.984L226.87 55.336C231.574 55.848 233.078 57.416 233.078 60.136C233.078 63.144 230.07 65.32 224.726 65.32Z" fill="#D434FE"/>
</svg>
