<svg width="167" height="45" viewBox="0 0 167 45" fill="none" xmlns="http://www.w3.org/2000/svg">
<path d="M6.72758 14.2C2.14758 14.2 0.467578 12.14 0.467578 8.26V7.74H4.46758V8.22C4.46758 10.04 4.56758 10.56 6.72758 10.56C8.86758 10.56 9.02758 10.08 9.02758 8.42V0.6H13.0276V8.46C13.0276 12.2 11.3276 14.2 6.72758 14.2ZM18.2888 14.2C15.4688 14.2 14.1488 12.56 14.1488 10.38V3.92H17.9088V9C17.9088 10.4 18.4488 10.84 20.1688 10.84C21.9088 10.84 22.3288 10.42 22.3288 9.12V3.92H26.0888V14H22.5688V10.94H22.3688C22.1488 12.62 21.0288 14.2 18.2888 14.2ZM31.7952 14.2C28.7152 14.2 27.0152 12.22 27.0152 8.96C27.0152 5.68 28.6752 3.72 31.6352 3.72C34.0152 3.72 35.1352 4.84 35.4352 6.52H35.6352V0.6H39.3952V14H35.8752V11.28H35.6752C35.3552 13.28 34.1552 14.2 31.7952 14.2ZM30.8152 8.96C30.8152 10.3 31.4152 10.76 33.1552 10.76C34.8352 10.76 35.6352 10.44 35.6352 8.98V8.84C35.6352 7.42 34.8352 7.14 33.1552 7.14C31.4152 7.14 30.8152 7.62 30.8152 8.96ZM45.0741 12.88C42.0741 12.88 40.3941 11.16 40.3941 8.28C40.3941 5.44 42.1941 3.72 45.1741 3.72C47.2141 3.72 48.5741 4.54 48.8541 6.28H49.0541V3.92H52.5741V12.3C52.5741 15.9 50.4341 17.6 46.5541 17.6C43.0341 17.6 40.9941 16.12 40.9941 13.48H44.7541C44.7541 14.3 44.8541 14.5 46.8141 14.5C48.4341 14.5 48.8141 14.26 48.8141 12.56V10.44H48.6141C48.3541 11.9 47.2941 12.88 45.0741 12.88ZM44.1941 8.28C44.1941 9.28 44.6741 9.66 46.4341 9.66C48.1141 9.66 48.8141 9.46 48.8141 8.4V8.26C48.8141 7.18 48.1141 6.96 46.4341 6.96C44.6741 6.96 44.1941 7.3 44.1941 8.28ZM57.5377 3H53.7777V0.6H57.5377V3ZM57.5377 14H53.7777V3.92H57.5377V14ZM62.4987 14H58.7387V3.92H62.2587V6.98H62.4587C62.6787 5.3 63.7787 3.72 66.4787 3.72C69.1987 3.72 70.4787 5.36 70.4787 7.54V14H66.7187V8.92C66.7187 7.52 66.1987 7.08 64.5587 7.08C62.8987 7.08 62.4987 7.5 62.4987 8.8V14ZM76.0702 12.88C73.0702 12.88 71.3902 11.16 71.3902 8.28C71.3902 5.44 73.1902 3.72 76.1702 3.72C78.2102 3.72 79.5702 4.54 79.8502 6.28H80.0502V3.92H83.5702V12.3C83.5702 15.9 81.4302 17.6 77.5502 17.6C74.0302 17.6 71.9902 16.12 71.9902 13.48H75.7502C75.7502 14.3 75.8502 14.5 77.8102 14.5C79.4302 14.5 79.8102 14.26 79.8102 12.56V10.44H79.6102C79.3502 11.9 78.2902 12.88 76.0702 12.88ZM75.1902 8.28C75.1902 9.28 75.6702 9.66 77.4302 9.66C79.1102 9.66 79.8102 9.46 79.8102 8.4V8.26C79.8102 7.18 79.1102 6.96 77.4302 6.96C75.6702 6.96 75.1902 7.3 75.1902 8.28ZM94.7668 14.2C90.1068 14.2 87.3668 11.48 87.3668 7.3C87.3668 3.12 90.1068 0.4 94.7668 0.4C99.2668 0.4 101.967 2.54 101.967 6.12V6.46H97.7668V6.12C97.7668 4.6 97.0468 4 94.8268 4C92.1068 4 91.3668 4.64 91.3668 7.3C91.3668 9.96 92.1068 10.6 94.8268 10.6C97.0468 10.6 97.7668 10 97.7668 8.48V8.14H101.967V8.48C101.967 12.06 99.2668 14.2 94.7668 14.2ZM106.717 14H102.957V3.92H106.477V6.56H106.677C106.957 4.9 107.997 3.72 109.997 3.72C112.217 3.72 113.097 5.18 113.097 7.2V9.2H109.337V8.02C109.337 7.18 109.017 6.88 108.037 6.88C107.017 6.88 106.717 7.18 106.717 7.98V14ZM117.655 3H113.895V0.6H117.655V3ZM117.655 14H113.895V3.92H117.655V14ZM126.396 14H123.756C121.236 14 119.736 12.78 119.736 10.16V7H118.256V3.92H119.736V2.18H123.496V3.92H126.396V7H123.496V9.62C123.496 10.42 123.736 10.62 124.596 10.62H126.396V14ZM132.913 14.2C129.493 14.2 127.093 12.74 127.093 8.96C127.093 5.68 129.473 3.72 132.833 3.72C136.313 3.72 138.533 5.46 138.533 8.7C138.533 9.04 138.513 9.3 138.473 9.66H130.573C130.633 10.88 131.173 11.22 132.773 11.22C134.293 11.22 134.693 10.96 134.693 10.36V10.14H138.453V10.38C138.453 12.62 136.313 14.2 132.913 14.2ZM132.753 6.6C131.373 6.6 130.793 6.9 130.633 7.76H134.893C134.753 6.9 134.153 6.6 132.753 6.6ZM143.299 14H139.539V3.92H143.059V6.56H143.259C143.539 4.9 144.579 3.72 146.579 3.72C148.799 3.72 149.679 5.18 149.679 7.2V9.2H145.919V8.02C145.919 7.18 145.599 6.88 144.619 6.88C143.599 6.88 143.299 7.18 143.299 7.98V14ZM154.237 3H150.477V0.6H154.237V3ZM154.237 14H150.477V3.92H154.237V14ZM158.698 14.2C156.418 14.2 155.138 13.16 155.138 11.44C155.138 10.02 156.118 9 158.398 8.78L162.498 8.38V8.18C162.498 7.16 162.058 7 160.718 7C159.478 7 159.098 7.24 159.098 8.08V8.16H155.338V8.12C155.338 5.44 157.578 3.72 160.998 3.72C164.518 3.72 166.218 5.44 166.218 8.26V14H162.698V11.88H162.498C162.118 13.3 160.878 14.2 158.698 14.2ZM158.918 11.2C158.918 11.52 159.238 11.58 159.818 11.58C161.638 11.58 162.378 11.36 162.478 10.46L159.398 10.82C159.058 10.86 158.918 10.98 158.918 11.2Z" fill="white"/>
<path d="M14.8717 41H11.1117V27.6H14.8717V32.58H17.5717L20.8317 27.6H25.3317L20.6917 34.18L25.2317 41H20.7317L17.6117 36.24H14.8717V41ZM31.3606 41.2C27.9406 41.2 25.5406 39.74 25.5406 35.96C25.5406 32.68 27.9206 30.72 31.2806 30.72C34.7606 30.72 36.9806 32.46 36.9806 35.7C36.9806 36.04 36.9606 36.3 36.9206 36.66H29.0206C29.0806 37.88 29.6206 38.22 31.2206 38.22C32.7406 38.22 33.1406 37.96 33.1406 37.36V37.14H36.9006V37.38C36.9006 39.62 34.7606 41.2 31.3606 41.2ZM31.2006 33.6C29.8206 33.6 29.2406 33.9 29.0806 34.76H33.3406C33.2006 33.9 32.6006 33.6 31.2006 33.6ZM40.2067 44.4H38.3867V41H41.3067C41.6067 41 41.8467 40.96 42.0067 40.88L37.1867 30.92H41.4667L43.2067 34.88L43.9267 37.2H44.1867L44.8467 34.84L46.3467 30.92H50.5467L45.7667 41.4C44.6867 43.78 43.1467 44.4 40.2067 44.4ZM57.0084 41.2C54.7284 41.2 53.4484 40.16 53.4484 38.44C53.4484 37.02 54.4284 36 56.7084 35.78L60.8084 35.38V35.18C60.8084 34.16 60.3684 34 59.0284 34C57.7884 34 57.4084 34.24 57.4084 35.08V35.16H53.6484V35.12C53.6484 32.44 55.8884 30.72 59.3084 30.72C62.8284 30.72 64.5284 32.44 64.5284 35.26V41H61.0084V38.88H60.8084C60.4284 40.3 59.1884 41.2 57.0084 41.2ZM57.2284 38.2C57.2284 38.52 57.5484 38.58 58.1284 38.58C59.9484 38.58 60.6884 38.36 60.7884 37.46L57.7084 37.82C57.3684 37.86 57.2284 37.98 57.2284 38.2ZM73.183 41H70.543C68.023 41 66.523 39.78 66.523 37.16V34H65.043V30.92H66.523V29.18H70.283V30.92H73.183V34H70.283V36.62C70.283 37.42 70.523 37.62 71.383 37.62H73.183V41ZM81.6205 41H78.9805C76.4605 41 74.9605 39.78 74.9605 37.16V34H73.4805V30.92H74.9605V29.18H78.7205V30.92H81.6205V34H78.7205V36.62C78.7205 37.42 78.9605 37.62 79.8205 37.62H81.6205V41ZM86.278 41H82.518V30.92H86.038V33.56H86.238C86.518 31.9 87.558 30.72 89.558 30.72C91.778 30.72 92.658 32.18 92.658 34.2V36.2H88.898V35.02C88.898 34.18 88.578 33.88 87.598 33.88C86.578 33.88 86.278 34.18 86.278 34.98V41ZM97.2155 30H93.4555V27.6H97.2155V30ZM97.2155 41H93.4555V30.92H97.2155V41ZM101.936 41H98.4164V27.6H102.176V33.52H102.376C102.676 31.84 103.796 30.72 106.176 30.72C109.136 30.72 110.796 32.68 110.796 35.96C110.796 39.22 109.096 41.2 106.016 41.2C103.656 41.2 102.456 40.28 102.136 38.28H101.936V41ZM102.176 35.98C102.176 37.44 102.976 37.76 104.656 37.76C106.396 37.76 106.996 37.3 106.996 35.96C106.996 34.62 106.396 34.14 104.656 34.14C102.976 34.14 102.176 34.42 102.176 35.84V35.98ZM115.935 41.2C113.115 41.2 111.795 39.56 111.795 37.38V30.92H115.555V36C115.555 37.4 116.095 37.84 117.815 37.84C119.555 37.84 119.975 37.42 119.975 36.12V30.92H123.735V41H120.215V37.94H120.015C119.795 39.62 118.675 41.2 115.935 41.2ZM132.402 41H129.762C127.242 41 125.742 39.78 125.742 37.16V34H124.262V30.92H125.742V29.18H129.502V30.92H132.402V34H129.502V36.62C129.502 37.42 129.742 37.62 130.602 37.62H132.402V41ZM138.919 41.2C135.499 41.2 133.099 39.74 133.099 35.96C133.099 32.68 135.479 30.72 138.839 30.72C142.319 30.72 144.539 32.46 144.539 35.7C144.539 36.04 144.519 36.3 144.479 36.66H136.579C136.639 37.88 137.179 38.22 138.779 38.22C140.299 38.22 140.699 37.96 140.699 37.36V37.14H144.459V37.38C144.459 39.62 142.319 41.2 138.919 41.2ZM138.759 33.6C137.379 33.6 136.799 33.9 136.639 34.76H140.899C140.759 33.9 140.159 33.6 138.759 33.6ZM150.965 41.2C147.405 41.2 145.505 39.82 145.505 37.5V37.42H149.265V37.62C149.265 38.18 149.625 38.24 150.985 38.24C152.285 38.24 152.485 38.1 152.485 37.76C152.485 37.44 152.325 37.36 151.385 37.26L148.465 36.94C146.385 36.72 145.265 35.74 145.265 34.04C145.265 32.26 146.685 30.72 150.465 30.72C153.965 30.72 155.825 31.98 155.825 34.46V34.54H152.065V34.42C152.065 33.9 151.865 33.66 150.345 33.66C149.125 33.66 148.965 33.82 148.965 34.2C148.965 34.48 149.125 34.62 150.305 34.74L152.305 34.96C155.245 35.28 156.185 36.26 156.185 37.96C156.185 39.84 154.305 41.2 150.965 41.2Z" fill="#D434FE"/>
</svg>
