<svg width="301" height="57" viewBox="0 0 301 57" fill="none" xmlns="http://www.w3.org/2000/svg">
<path d="M13.08 21.82H9.18L7.1 19.18C3 18.94 0.5 16.28 0.5 12.3C0.5 8.12 3.26 5.4 7.7 5.4C12.24 5.4 14.98 8.12 14.98 12.3C14.98 15.56 13.32 17.94 10.42 18.82L13.08 21.82ZM7.7 16.32C10.64 16.32 11.78 15.28 11.78 12.3C11.78 9.32 10.64 8.28 7.7 8.28C4.76 8.28 3.68 9.32 3.68 12.3C3.68 15.28 4.76 16.32 7.7 16.32ZM20.4283 19.2C17.6083 19.2 16.2683 17.46 16.2683 15.22V8.98H19.2683V14.22C19.2683 15.84 19.9483 16.52 21.8483 16.52C23.8083 16.52 24.5083 15.76 24.5083 14.06V8.98H27.5083V19H24.7083V15.94H24.5483C24.2883 17.62 23.0683 19.2 20.4283 19.2ZM34.3622 19.2C31.0222 19.2 28.7422 17.56 28.7422 14C28.7422 10.8 31.0022 8.78 34.3022 8.78C37.5822 8.78 39.7622 10.5 39.7622 13.64C39.7622 14 39.7222 14.26 39.6822 14.6H31.5222C31.6022 16.14 32.3222 16.8 34.2622 16.8C36.0422 16.8 36.6622 16.34 36.6622 15.48V15.28H39.6622V15.5C39.6622 17.68 37.5422 19.2 34.3622 19.2ZM34.2422 11.12C32.4622 11.12 31.7022 11.72 31.5622 13.02H36.8822C36.8022 11.7 36.0022 11.12 34.2422 11.12ZM46.0944 19.2C42.7144 19.2 40.8544 17.88 40.8544 15.56V15.5H43.8544V15.68C43.8544 16.58 44.4144 16.82 46.1144 16.82C47.7144 16.82 48.0944 16.56 48.0944 15.96C48.0944 15.4 47.7944 15.24 46.6144 15.08L43.7944 14.74C41.7944 14.52 40.6744 13.62 40.6744 11.94C40.6744 10.18 42.1744 8.78 45.6144 8.78C48.8944 8.78 50.7544 10.02 50.7544 12.46V12.52H47.7544V12.4C47.7544 11.58 47.3544 11.16 45.5144 11.16C44.0144 11.16 43.6344 11.42 43.6344 12.06C43.6344 12.58 43.9144 12.8 45.2344 12.96L47.3744 13.22C50.0544 13.52 51.0544 14.42 51.0544 16.08C51.0544 17.96 49.1944 19.2 46.0944 19.2ZM59.3248 19H56.8448C54.5048 19 53.0848 17.9 53.0848 15.38V11.46H51.5048V8.98H53.0848V7.04H56.0848V8.98H59.3248V11.46H56.0848V15.04C56.0848 16.04 56.4648 16.3 57.5248 16.3H59.3248V19ZM63.4484 7.96H60.4484V5.6H63.4484V7.96ZM63.4484 19H60.4484V8.98H63.4484V19ZM70.3588 19.2C66.9388 19.2 64.6388 17.16 64.6388 14C64.6388 10.8 66.9388 8.78 70.3588 8.78C73.7788 8.78 76.0788 10.8 76.0788 14C76.0788 17.16 73.7788 19.2 70.3588 19.2ZM70.3588 16.54C72.3788 16.54 73.0988 15.76 73.0988 14C73.0988 12.24 72.3788 11.42 70.3588 11.42C68.3188 11.42 67.6188 12.24 67.6188 14C67.6188 15.76 68.3188 16.54 70.3588 16.54ZM80.3039 19H77.3039V8.98H80.0839V12.06H80.2639C80.5239 10.38 81.7239 8.78 84.3439 8.78C87.0839 8.78 88.3839 10.54 88.3839 12.76V19H85.3839V13.76C85.3839 12.16 84.7239 11.48 82.8839 11.48C80.9839 11.48 80.3039 12.24 80.3039 13.94V19ZM94.9616 19.2C91.5816 19.2 89.7216 17.88 89.7216 15.56V15.5H92.7216V15.68C92.7216 16.58 93.2816 16.82 94.9816 16.82C96.5816 16.82 96.9616 16.56 96.9616 15.96C96.9616 15.4 96.6616 15.24 95.4816 15.08L92.6616 14.74C90.6616 14.52 89.5416 13.62 89.5416 11.94C89.5416 10.18 91.0416 8.78 94.4816 8.78C97.7616 8.78 99.6216 10.02 99.6216 12.46V12.52H96.6216V12.4C96.6216 11.58 96.2216 11.16 94.3816 11.16C92.8816 11.16 92.5016 11.42 92.5016 12.06C92.5016 12.58 92.7816 12.8 94.1016 12.96L96.2416 13.22C98.9216 13.52 99.9216 14.42 99.9216 16.08C99.9216 17.96 98.0616 19.2 94.9616 19.2ZM109.558 19.2C106.138 19.2 103.838 17.16 103.838 14C103.838 10.8 106.138 8.78 109.558 8.78C112.978 8.78 115.278 10.8 115.278 14C115.278 17.16 112.978 19.2 109.558 19.2ZM109.558 16.54C111.578 16.54 112.298 15.76 112.298 14C112.298 12.24 111.578 11.42 109.558 11.42C107.518 11.42 106.818 12.24 106.818 14C106.818 15.76 107.518 16.54 109.558 16.54ZM119.503 19H116.503V8.98H119.283V11.64H119.463C119.743 10.02 120.803 8.78 122.823 8.78C125.063 8.78 125.983 10.32 125.983 12.28V13.94H122.983V12.9C122.983 11.8 122.543 11.32 121.323 11.32C119.983 11.32 119.503 11.94 119.503 13.2V19ZM133.155 19H130.155V8.98H132.935V12.06H133.115C133.375 10.38 134.575 8.78 137.195 8.78C139.935 8.78 141.235 10.54 141.235 12.76V19H138.235V13.76C138.235 12.16 137.575 11.48 135.735 11.48C133.835 11.48 133.155 12.24 133.155 13.94V19ZM148.073 19.2C144.733 19.2 142.453 17.56 142.453 14C142.453 10.8 144.713 8.78 148.013 8.78C151.293 8.78 153.473 10.5 153.473 13.64C153.473 14 153.433 14.26 153.393 14.6H145.233C145.313 16.14 146.033 16.8 147.973 16.8C149.753 16.8 150.373 16.34 150.373 15.48V15.28H153.373V15.5C153.373 17.68 151.253 19.2 148.073 19.2ZM147.953 11.12C146.173 11.12 145.413 11.72 145.273 13.02H150.593C150.513 11.7 149.713 11.12 147.953 11.12ZM160.065 19.2C156.725 19.2 154.445 17.56 154.445 14C154.445 10.8 156.705 8.78 160.005 8.78C163.285 8.78 165.465 10.5 165.465 13.64C165.465 14 165.425 14.26 165.385 14.6H157.225C157.305 16.14 158.025 16.8 159.965 16.8C161.745 16.8 162.365 16.34 162.365 15.48V15.28H165.365V15.5C165.365 17.68 163.245 19.2 160.065 19.2ZM159.945 11.12C158.165 11.12 157.405 11.72 157.265 13.02H162.585C162.505 11.7 161.705 11.12 159.945 11.12ZM171.217 19.2C168.098 19.2 166.378 17.16 166.378 14C166.378 10.8 168.078 8.78 171.058 8.78C173.438 8.78 174.658 9.96 174.998 11.64H175.178V5.6H178.178V19H175.378V16.22H175.218C174.838 18.2 173.518 19.2 171.217 19.2ZM169.418 14C169.418 15.82 170.318 16.46 172.238 16.46C174.138 16.46 175.178 15.8 175.178 14.06V13.9C175.178 12.16 174.158 11.52 172.238 11.52C170.318 11.52 169.418 12.16 169.418 14ZM185.931 19.2C183.771 19.2 182.471 18.2 182.471 16.52C182.471 15.04 183.571 14.12 185.711 13.9L190.011 13.46V13.08C190.011 11.78 189.431 11.42 187.831 11.42C186.311 11.42 185.691 11.82 185.691 12.96V13.04H182.671V12.98C182.671 10.5 184.751 8.78 188.051 8.78C191.391 8.78 192.971 10.5 192.971 13.12V19H190.171V16.7H190.011C189.551 18.26 188.151 19.2 185.931 19.2ZM185.491 16.32C185.491 16.86 185.911 17.08 186.791 17.08C188.831 17.08 189.931 16.6 190.011 15.18L186.531 15.58C185.811 15.64 185.491 15.84 185.491 16.32ZM199.551 19.2C196.171 19.2 194.311 17.88 194.311 15.56V15.5H197.311V15.68C197.311 16.58 197.871 16.82 199.571 16.82C201.171 16.82 201.551 16.56 201.551 15.96C201.551 15.4 201.251 15.24 200.071 15.08L197.251 14.74C195.251 14.52 194.131 13.62 194.131 11.94C194.131 10.18 195.631 8.78 199.071 8.78C202.351 8.78 204.211 10.02 204.211 12.46V12.52H201.211V12.4C201.211 11.58 200.811 11.16 198.971 11.16C197.471 11.16 197.091 11.42 197.091 12.06C197.091 12.58 197.371 12.8 198.691 12.96L200.831 13.22C203.511 13.52 204.511 14.42 204.511 16.08C204.511 17.96 202.651 19.2 199.551 19.2ZM210.782 19.2C207.402 19.2 205.542 17.88 205.542 15.56V15.5H208.542V15.68C208.542 16.58 209.102 16.82 210.802 16.82C212.402 16.82 212.782 16.56 212.782 15.96C212.782 15.4 212.482 15.24 211.302 15.08L208.482 14.74C206.482 14.52 205.362 13.62 205.362 11.94C205.362 10.18 206.862 8.78 210.302 8.78C213.582 8.78 215.442 10.02 215.442 12.46V12.52H212.442V12.4C212.442 11.58 212.042 11.16 210.202 11.16C208.702 11.16 208.322 11.42 208.322 12.06C208.322 12.58 208.602 12.8 209.922 12.96L212.062 13.22C214.742 13.52 215.742 14.42 215.742 16.08C215.742 17.96 213.882 19.2 210.782 19.2ZM219.952 7.96H216.952V5.6H219.952V7.96ZM219.952 19H216.952V8.98H219.952V19ZM226.583 19.2C223.203 19.2 221.343 17.88 221.343 15.56V15.5H224.343V15.68C224.343 16.58 224.903 16.82 226.603 16.82C228.203 16.82 228.583 16.56 228.583 15.96C228.583 15.4 228.283 15.24 227.103 15.08L224.283 14.74C222.283 14.52 221.163 13.62 221.163 11.94C221.163 10.18 222.663 8.78 226.103 8.78C229.383 8.78 231.243 10.02 231.243 12.46V12.52H228.243V12.4C228.243 11.58 227.843 11.16 226.003 11.16C224.503 11.16 224.123 11.42 224.123 12.06C224.123 12.58 224.403 12.8 225.723 12.96L227.863 13.22C230.543 13.52 231.543 14.42 231.543 16.08C231.543 17.96 229.683 19.2 226.583 19.2ZM239.813 19H237.333C234.993 19 233.573 17.9 233.573 15.38V11.46H231.993V8.98H233.573V7.04H236.573V8.98H239.813V11.46H236.573V15.04C236.573 16.04 236.953 16.3 238.013 16.3H239.813V19ZM244.017 19.2C241.857 19.2 240.557 18.2 240.557 16.52C240.557 15.04 241.657 14.12 243.797 13.9L248.097 13.46V13.08C248.097 11.78 247.517 11.42 245.917 11.42C244.397 11.42 243.777 11.82 243.777 12.96V13.04H240.757V12.98C240.757 10.5 242.837 8.78 246.137 8.78C249.477 8.78 251.057 10.5 251.057 13.12V19H248.257V16.7H248.097C247.637 18.26 246.237 19.2 244.017 19.2ZM243.577 16.32C243.577 16.86 243.997 17.08 244.877 17.08C246.917 17.08 248.017 16.6 248.097 15.18L244.617 15.58C243.897 15.64 243.577 15.84 243.577 16.32ZM255.577 19H252.577V8.98H255.357V12.06H255.537C255.797 10.38 256.997 8.78 259.617 8.78C262.357 8.78 263.657 10.54 263.657 12.76V19H260.657V13.76C260.657 12.16 259.997 11.48 258.157 11.48C256.257 11.48 255.577 12.24 255.577 13.94V19ZM270.515 19.2C267.075 19.2 264.875 17.16 264.875 14C264.875 10.8 267.075 8.78 270.515 8.78C273.735 8.78 275.935 10.5 275.935 13.1V13.38H272.955V13.22C272.955 11.94 272.015 11.48 270.455 11.48C268.675 11.48 267.855 12.14 267.855 14C267.855 15.84 268.675 16.5 270.455 16.5C272.015 16.5 272.955 16.04 272.955 14.76V14.6H275.935V14.88C275.935 17.46 273.735 19.2 270.515 19.2ZM282.546 19.2C279.206 19.2 276.926 17.56 276.926 14C276.926 10.8 279.186 8.78 282.486 8.78C285.766 8.78 287.946 10.5 287.946 13.64C287.946 14 287.906 14.26 287.866 14.6H279.706C279.786 16.14 280.506 16.8 282.446 16.8C284.226 16.8 284.846 16.34 284.846 15.48V15.28H287.846V15.5C287.846 17.68 285.726 19.2 282.546 19.2ZM282.426 11.12C280.646 11.12 279.886 11.72 279.746 13.02H285.066C284.986 11.7 284.186 11.12 282.426 11.12ZM295.398 14.58H292.398V13.88C292.398 12.42 293.418 11.74 294.658 11.26L296.058 10.7C297.018 10.32 297.478 10.02 297.478 9.34C297.478 8.66 297.078 8.14 294.758 8.14C292.318 8.14 291.578 8.78 291.578 10.06V10.84H288.618V10.3C288.618 7.7 290.398 5.4 294.978 5.4C298.918 5.4 300.478 7.12 300.478 9.24C300.478 11.32 299.058 12.16 297.738 12.68L296.258 13.26C295.518 13.56 295.398 13.84 295.398 14.34V14.58ZM295.638 19H292.198V15.74H295.638V19Z" fill="#D434FE"/>
<path d="M11.78 51H0.8V37.6H3.8V48.3H11.78V51ZM18.3075 51.2C14.9675 51.2 12.6875 49.56 12.6875 46C12.6875 42.8 14.9475 40.78 18.2475 40.78C21.5275 40.78 23.7075 42.5 23.7075 45.64C23.7075 46 23.6675 46.26 23.6275 46.6H15.4675C15.5475 48.14 16.2675 48.8 18.2075 48.8C19.9875 48.8 20.6075 48.34 20.6075 47.48V47.28H23.6075V47.5C23.6075 49.68 21.4875 51.2 18.3075 51.2ZM18.1875 43.12C16.4075 43.12 15.6475 43.72 15.5075 45.02H20.8275C20.7475 43.7 19.9475 43.12 18.1875 43.12ZM32.0397 51H29.5597C27.2197 51 25.7997 49.9 25.7997 47.38V43.46H24.2197V40.98H25.7997V39.04H28.7997V40.98H32.0397V43.46H28.7997V47.04C28.7997 48.04 29.1797 48.3 30.2397 48.3H32.0397V51ZM40.3892 51.2C37.5692 51.2 36.2292 49.46 36.2292 47.22V40.98H39.2292V46.22C39.2292 47.84 39.9092 48.52 41.8092 48.52C43.7692 48.52 44.4692 47.76 44.4692 46.06V40.98H47.4692V51H44.6692V47.94H44.5092C44.2492 49.62 43.0292 51.2 40.3892 51.2ZM54.0631 51.2C50.6831 51.2 48.8231 49.88 48.8231 47.56V47.5H51.8231V47.68C51.8231 48.58 52.3831 48.82 54.0831 48.82C55.6831 48.82 56.0631 48.56 56.0631 47.96C56.0631 47.4 55.7631 47.24 54.5831 47.08L51.7631 46.74C49.7631 46.52 48.6431 45.62 48.6431 43.94C48.6431 42.18 50.1431 40.78 53.5831 40.78C56.8631 40.78 58.7231 42.02 58.7231 44.46V44.52H55.7231V44.4C55.7231 43.58 55.3231 43.16 53.4831 43.16C51.9831 43.16 51.6031 43.42 51.6031 44.06C51.6031 44.58 51.8831 44.8 53.2031 44.96L55.3431 45.22C58.0231 45.52 59.0231 46.42 59.0231 48.08C59.0231 49.96 57.1631 51.2 54.0631 51.2ZM66.3195 51H63.3195V37.6H66.3195V44.7H68.5995L71.1595 40.98H74.7195L71.0595 45.82L74.6595 51H71.1195L68.6195 47.38H66.3195V51ZM78.4484 51H75.4484V40.98H78.2284V44.06H78.4084C78.6684 42.38 79.8684 40.78 82.4884 40.78C85.2284 40.78 86.5284 42.54 86.5284 44.76V51H83.5284V45.76C83.5284 44.16 82.8684 43.48 81.0284 43.48C79.1284 43.48 78.4484 44.24 78.4484 45.94V51ZM93.3861 51.2C89.9661 51.2 87.6661 49.16 87.6661 46C87.6661 42.8 89.9661 40.78 93.3861 40.78C96.8061 40.78 99.1061 42.8 99.1061 46C99.1061 49.16 96.8061 51.2 93.3861 51.2ZM93.3861 48.54C95.4061 48.54 96.1261 47.76 96.1261 46C96.1261 44.24 95.4061 43.42 93.3861 43.42C91.3461 43.42 90.6461 44.24 90.6461 46C90.6461 47.76 91.3461 48.54 93.3861 48.54ZM106.011 51H102.271L99.5312 40.98H102.631L103.811 45.56L104.231 48.68H104.431L105.231 45.26L106.751 40.98H110.611L112.111 45.26L112.911 48.68H113.111L113.551 45.56L114.711 40.98H117.771L114.931 51H111.191L109.471 46.18L108.731 43.42H108.511L107.751 46.18L106.011 51ZM127.825 51.2C125.665 51.2 124.365 50.2 124.365 48.52C124.365 47.04 125.465 46.12 127.605 45.9L131.905 45.46V45.08C131.905 43.78 131.325 43.42 129.725 43.42C128.205 43.42 127.585 43.82 127.585 44.96V45.04H124.565V44.98C124.565 42.5 126.645 40.78 129.945 40.78C133.285 40.78 134.865 42.5 134.865 45.12V51H132.065V48.7H131.905C131.445 50.26 130.045 51.2 127.825 51.2ZM127.385 48.32C127.385 48.86 127.805 49.08 128.685 49.08C130.725 49.08 131.825 48.6 131.905 47.18L128.425 47.58C127.705 47.64 127.385 47.84 127.385 48.32ZM139.166 51H136.386V37.6H139.386V43.64H139.546C139.886 41.96 141.106 40.78 143.486 40.78C146.486 40.78 148.166 42.8 148.166 46C148.166 49.16 146.466 51.2 143.346 51.2C141.026 51.2 139.706 50.2 139.346 48.22H139.166V51ZM139.386 46.06C139.386 47.8 140.406 48.46 142.306 48.46C144.246 48.46 145.126 47.82 145.126 46C145.126 44.16 144.246 43.52 142.326 43.52C140.386 43.52 139.386 44.16 139.386 45.9V46.06ZM154.753 51.2C151.333 51.2 149.033 49.16 149.033 46C149.033 42.8 151.333 40.78 154.753 40.78C158.173 40.78 160.473 42.8 160.473 46C160.473 49.16 158.173 51.2 154.753 51.2ZM154.753 48.54C156.773 48.54 157.493 47.76 157.493 46C157.493 44.24 156.773 43.42 154.753 43.42C152.713 43.42 152.013 44.24 152.013 46C152.013 47.76 152.713 48.54 154.753 48.54ZM165.838 51.2C163.018 51.2 161.678 49.46 161.678 47.22V40.98H164.678V46.22C164.678 47.84 165.358 48.52 167.258 48.52C169.218 48.52 169.918 47.76 169.918 46.06V40.98H172.918V51H170.118V47.94H169.958C169.698 49.62 168.478 51.2 165.838 51.2ZM181.512 51H179.032C176.692 51 175.272 49.9 175.272 47.38V43.46H173.692V40.98H175.272V39.04H178.272V40.98H181.512V43.46H178.272V47.04C178.272 48.04 178.652 48.3 179.712 48.3H181.512V51ZM188.722 39.96H185.722V37.6H188.722V39.96ZM188.722 51H185.722V40.98H188.722V51ZM197.352 51H194.872C192.532 51 191.112 49.9 191.112 47.38V43.46H189.532V40.98H191.112V39.04H194.112V40.98H197.352V43.46H194.112V47.04C194.112 48.04 194.492 48.3 195.552 48.3H197.352V51ZM202.136 46.6H199.116C199.116 44.96 198.696 40.54 198.696 39V37.6H202.556V39C202.556 40.54 202.136 44.98 202.136 46.6ZM202.336 51H198.916V47.74H202.336V51Z" fill="#D434FE"/>
</svg>
