<svg width="187" height="23" viewBox="0 0 187 23" fill="none" xmlns="http://www.w3.org/2000/svg">
<path d="M11.392 22.32C4.832 22.32 0.8 17.968 0.8 11.28C0.8 4.592 5.344 0.24 12.704 0.24C19.424 0.24 23.68 3.376 23.68 8.528V8.784H18.336V8.528C18.336 6.032 16.704 4.848 12.576 4.848C7.712 4.848 5.888 6.512 5.888 11.28C5.888 16.048 7.648 17.712 12.352 17.712C17.28 17.712 18.784 16.944 18.912 14.224H11.648V10.672H23.712V22H19.264V17.392H19.008C18.272 20.208 16.032 22.32 11.392 22.32ZM34.5733 22.32C29.2293 22.32 25.5813 19.696 25.5813 14C25.5813 8.88 29.1973 5.648 34.4773 5.648C39.7253 5.648 43.2133 8.4 43.2133 13.424C43.2133 14 43.1493 14.416 43.0853 14.96H30.0293C30.1573 17.424 31.3093 18.48 34.4133 18.48C37.2613 18.48 38.2533 17.744 38.2533 16.368V16.048H43.0533V16.4C43.0533 19.888 39.6613 22.32 34.5733 22.32ZM34.3813 9.392C31.5333 9.392 30.3173 10.352 30.0933 12.432H38.6053C38.4773 10.32 37.1973 9.392 34.3813 9.392ZM56.5448 22H52.5768C48.8328 22 46.5608 20.24 46.5608 16.208V9.936H44.0328V5.968H46.5608V2.864H51.3608V5.968H56.5448V9.936H51.3608V15.664C51.3608 17.264 51.9688 17.68 53.6648 17.68H56.5448V22ZM68.08 4.336H63.28V0.559999H68.08V4.336ZM68.08 22H63.28V5.968H68.08V22ZM75.3925 22H70.5925V5.968H75.0405V10.896H75.3285C75.7445 8.208 77.6645 5.648 81.8565 5.648C86.2405 5.648 88.3205 8.464 88.3205 12.016V22H83.5205V13.616C83.5205 11.056 82.4645 9.968 79.5205 9.968C76.4805 9.968 75.3925 11.184 75.3925 13.904V22ZM106.982 22H103.014C99.2703 22 96.9983 20.24 96.9983 16.208V9.936H94.4703V5.968H96.9983V2.864H101.798V5.968H106.982V9.936H101.798V15.664C101.798 17.264 102.406 17.68 104.102 17.68H106.982V22ZM117.324 22.32C111.852 22.32 108.172 19.056 108.172 14C108.172 8.88 111.852 5.648 117.324 5.648C122.796 5.648 126.476 8.88 126.476 14C126.476 19.056 122.796 22.32 117.324 22.32ZM117.324 18.064C120.556 18.064 121.708 16.816 121.708 14C121.708 11.184 120.556 9.872 117.324 9.872C114.06 9.872 112.94 11.184 112.94 14C112.94 16.816 114.06 18.064 117.324 18.064ZM135.06 22.32C130.548 22.32 128.404 19.536 128.404 15.952V5.968H133.204V14.352C133.204 16.944 134.292 18.032 137.332 18.032C140.468 18.032 141.588 16.816 141.588 14.096V5.968H146.388V22H141.908V17.104H141.652C141.236 19.792 139.284 22.32 135.06 22.32ZM157.387 22.32C151.883 22.32 148.363 19.056 148.363 14C148.363 8.88 151.883 5.648 157.387 5.648C162.539 5.648 166.059 8.4 166.059 12.56V13.008H161.291V12.752C161.291 10.704 159.787 9.968 157.291 9.968C154.443 9.968 153.131 11.024 153.131 14C153.131 16.944 154.443 18 157.291 18C159.787 18 161.291 17.264 161.291 15.216V14.96H166.059V15.408C166.059 19.536 162.539 22.32 157.387 22.32ZM172.924 22H168.124V0.559999H172.924V10.864H173.18C173.692 8.144 175.58 5.648 179.676 5.648C183.996 5.648 186.108 8.464 186.108 12.176V22H181.308V13.616C181.308 10.928 180.156 9.968 177.148 9.968C173.916 9.968 172.924 11.28 172.924 13.968V22Z" fill="#D434FE"/>
</svg>
