<svg width="195" height="75" viewBox="0 0 195 75" fill="none" xmlns="http://www.w3.org/2000/svg">
<path d="M13.08 21.82H9.18L7.1 19.18C3 18.94 0.5 16.28 0.5 12.3C0.5 8.12 3.26 5.4 7.7 5.4C12.24 5.4 14.98 8.12 14.98 12.3C14.98 15.56 13.32 17.94 10.42 18.82L13.08 21.82ZM7.7 16.32C10.64 16.32 11.78 15.28 11.78 12.3C11.78 9.32 10.64 8.28 7.7 8.28C4.76 8.28 3.68 9.32 3.68 12.3C3.68 15.28 4.76 16.32 7.7 16.32ZM20.4283 19.2C17.6083 19.2 16.2683 17.46 16.2683 15.22V8.98H19.2683V14.22C19.2683 15.84 19.9483 16.52 21.8483 16.52C23.8083 16.52 24.5083 15.76 24.5083 14.06V8.98H27.5083V19H24.7083V15.94H24.5483C24.2883 17.62 23.0683 19.2 20.4283 19.2ZM34.3622 19.2C31.0222 19.2 28.7422 17.56 28.7422 14C28.7422 10.8 31.0022 8.78 34.3022 8.78C37.5822 8.78 39.7622 10.5 39.7622 13.64C39.7622 14 39.7222 14.26 39.6822 14.6H31.5222C31.6022 16.14 32.3222 16.8 34.2622 16.8C36.0422 16.8 36.6622 16.34 36.6622 15.48V15.28H39.6622V15.5C39.6622 17.68 37.5422 19.2 34.3622 19.2ZM34.2422 11.12C32.4622 11.12 31.7022 11.72 31.5622 13.02H36.8822C36.8022 11.7 36.0022 11.12 34.2422 11.12ZM46.0944 19.2C42.7144 19.2 40.8544 17.88 40.8544 15.56V15.5H43.8544V15.68C43.8544 16.58 44.4144 16.82 46.1144 16.82C47.7144 16.82 48.0944 16.56 48.0944 15.96C48.0944 15.4 47.7944 15.24 46.6144 15.08L43.7944 14.74C41.7944 14.52 40.6744 13.62 40.6744 11.94C40.6744 10.18 42.1744 8.78 45.6144 8.78C48.8944 8.78 50.7544 10.02 50.7544 12.46V12.52H47.7544V12.4C47.7544 11.58 47.3544 11.16 45.5144 11.16C44.0144 11.16 43.6344 11.42 43.6344 12.06C43.6344 12.58 43.9144 12.8 45.2344 12.96L47.3744 13.22C50.0544 13.52 51.0544 14.42 51.0544 16.08C51.0544 17.96 49.1944 19.2 46.0944 19.2ZM59.3248 19H56.8448C54.5048 19 53.0848 17.9 53.0848 15.38V11.46H51.5048V8.98H53.0848V7.04H56.0848V8.98H59.3248V11.46H56.0848V15.04C56.0848 16.04 56.4648 16.3 57.5248 16.3H59.3248V19ZM63.4484 7.96H60.4484V5.6H63.4484V7.96ZM63.4484 19H60.4484V8.98H63.4484V19ZM70.3588 19.2C66.9388 19.2 64.6388 17.16 64.6388 14C64.6388 10.8 66.9388 8.78 70.3588 8.78C73.7788 8.78 76.0788 10.8 76.0788 14C76.0788 17.16 73.7788 19.2 70.3588 19.2ZM70.3588 16.54C72.3788 16.54 73.0988 15.76 73.0988 14C73.0988 12.24 72.3788 11.42 70.3588 11.42C68.3188 11.42 67.6188 12.24 67.6188 14C67.6188 15.76 68.3188 16.54 70.3588 16.54ZM80.3039 19H77.3039V8.98H80.0839V12.06H80.2639C80.5239 10.38 81.7239 8.78 84.3439 8.78C87.0839 8.78 88.3839 10.54 88.3839 12.76V19H85.3839V13.76C85.3839 12.16 84.7239 11.48 82.8839 11.48C80.9839 11.48 80.3039 12.24 80.3039 13.94V19ZM94.9616 19.2C91.5816 19.2 89.7216 17.88 89.7216 15.56V15.5H92.7216V15.68C92.7216 16.58 93.2816 16.82 94.9816 16.82C96.5816 16.82 96.9616 16.56 96.9616 15.96C96.9616 15.4 96.6616 15.24 95.4816 15.08L92.6616 14.74C90.6616 14.52 89.5416 13.62 89.5416 11.94C89.5416 10.18 91.0416 8.78 94.4816 8.78C97.7616 8.78 99.6216 10.02 99.6216 12.46V12.52H96.6216V12.4C96.6216 11.58 96.2216 11.16 94.3816 11.16C92.8816 11.16 92.5016 11.42 92.5016 12.06C92.5016 12.58 92.7816 12.8 94.1016 12.96L96.2416 13.22C98.9216 13.52 99.9216 14.42 99.9216 16.08C99.9216 17.96 98.0616 19.2 94.9616 19.2ZM109.558 19.2C106.138 19.2 103.838 17.16 103.838 14C103.838 10.8 106.138 8.78 109.558 8.78C112.978 8.78 115.278 10.8 115.278 14C115.278 17.16 112.978 19.2 109.558 19.2ZM109.558 16.54C111.578 16.54 112.298 15.76 112.298 14C112.298 12.24 111.578 11.42 109.558 11.42C107.518 11.42 106.818 12.24 106.818 14C106.818 15.76 107.518 16.54 109.558 16.54ZM119.503 19H116.503V8.98H119.283V11.64H119.463C119.743 10.02 120.803 8.78 122.823 8.78C125.063 8.78 125.983 10.32 125.983 12.28V13.94H122.983V12.9C122.983 11.8 122.543 11.32 121.323 11.32C119.983 11.32 119.503 11.94 119.503 13.2V19ZM133.155 19H130.155V8.98H132.935V12.06H133.115C133.375 10.38 134.575 8.78 137.195 8.78C139.935 8.78 141.235 10.54 141.235 12.76V19H138.235V13.76C138.235 12.16 137.575 11.48 135.735 11.48C133.835 11.48 133.155 12.24 133.155 13.94V19ZM148.073 19.2C144.733 19.2 142.453 17.56 142.453 14C142.453 10.8 144.713 8.78 148.013 8.78C151.293 8.78 153.473 10.5 153.473 13.64C153.473 14 153.433 14.26 153.393 14.6H145.233C145.313 16.14 146.033 16.8 147.973 16.8C149.753 16.8 150.373 16.34 150.373 15.48V15.28H153.373V15.5C153.373 17.68 151.253 19.2 148.073 19.2ZM147.953 11.12C146.173 11.12 145.413 11.72 145.273 13.02H150.593C150.513 11.7 149.713 11.12 147.953 11.12ZM160.065 19.2C156.725 19.2 154.445 17.56 154.445 14C154.445 10.8 156.705 8.78 160.005 8.78C163.285 8.78 165.465 10.5 165.465 13.64C165.465 14 165.425 14.26 165.385 14.6H157.225C157.305 16.14 158.025 16.8 159.965 16.8C161.745 16.8 162.365 16.34 162.365 15.48V15.28H165.365V15.5C165.365 17.68 163.245 19.2 160.065 19.2ZM159.945 11.12C158.165 11.12 157.405 11.72 157.265 13.02H162.585C162.505 11.7 161.705 11.12 159.945 11.12ZM171.217 19.2C168.098 19.2 166.378 17.16 166.378 14C166.378 10.8 168.078 8.78 171.058 8.78C173.438 8.78 174.658 9.96 174.998 11.64H175.178V5.6H178.178V19H175.378V16.22H175.218C174.838 18.2 173.518 19.2 171.217 19.2ZM169.418 14C169.418 15.82 170.318 16.46 172.238 16.46C174.138 16.46 175.178 15.8 175.178 14.06V13.9C175.178 12.16 174.158 11.52 172.238 11.52C170.318 11.52 169.418 12.16 169.418 14ZM3.88 44.2C1.72 44.2 0.42 43.2 0.42 41.52C0.42 40.04 1.52 39.12 3.66 38.9L7.96 38.46V38.08C7.96 36.78 7.38 36.42 5.78 36.42C4.26 36.42 3.64 36.82 3.64 37.96V38.04H0.62V37.98C0.62 35.5 2.7 33.78 6 33.78C9.34 33.78 10.92 35.5 10.92 38.12V44H8.12V41.7H7.96C7.5 43.26 6.1 44.2 3.88 44.2ZM3.44 41.32C3.44 41.86 3.86 42.08 4.74 42.08C6.78 42.08 7.88 41.6 7.96 40.18L4.48 40.58C3.76 40.64 3.44 40.84 3.44 41.32ZM17.5006 44.2C14.1206 44.2 12.2606 42.88 12.2606 40.56V40.5H15.2606V40.68C15.2606 41.58 15.8206 41.82 17.5206 41.82C19.1206 41.82 19.5006 41.56 19.5006 40.96C19.5006 40.4 19.2006 40.24 18.0206 40.08L15.2006 39.74C13.2006 39.52 12.0806 38.62 12.0806 36.94C12.0806 35.18 13.5806 33.78 17.0206 33.78C20.3006 33.78 22.1606 35.02 22.1606 37.46V37.52H19.1606V37.4C19.1606 36.58 18.7606 36.16 16.9206 36.16C15.4206 36.16 15.0406 36.42 15.0406 37.06C15.0406 37.58 15.3206 37.8 16.6406 37.96L18.7806 38.22C21.4606 38.52 22.4606 39.42 22.4606 41.08C22.4606 42.96 20.6006 44.2 17.5006 44.2ZM28.7311 44.2C25.3511 44.2 23.4911 42.88 23.4911 40.56V40.5H26.4911V40.68C26.4911 41.58 27.0511 41.82 28.7511 41.82C30.3511 41.82 30.7311 41.56 30.7311 40.96C30.7311 40.4 30.4311 40.24 29.2511 40.08L26.4311 39.74C24.4311 39.52 23.3111 38.62 23.3111 36.94C23.3111 35.18 24.8111 33.78 28.2511 33.78C31.5311 33.78 33.3911 35.02 33.3911 37.46V37.52H30.3911V37.4C30.3911 36.58 29.9911 36.16 28.1511 36.16C26.6511 36.16 26.2711 36.42 26.2711 37.06C26.2711 37.58 26.5511 37.8 27.8711 37.96L30.0111 38.22C32.6911 38.52 33.6911 39.42 33.6911 41.08C33.6911 42.96 31.8311 44.2 28.7311 44.2ZM37.9016 32.96H34.9016V30.6H37.9016V32.96ZM37.9016 44H34.9016V33.98H37.9016V44ZM44.5319 44.2C41.1519 44.2 39.2919 42.88 39.2919 40.56V40.5H42.2919V40.68C42.2919 41.58 42.8519 41.82 44.5519 41.82C46.1519 41.82 46.5319 41.56 46.5319 40.96C46.5319 40.4 46.2319 40.24 45.0519 40.08L42.2319 39.74C40.2319 39.52 39.1119 38.62 39.1119 36.94C39.1119 35.18 40.6119 33.78 44.0519 33.78C47.3319 33.78 49.1919 35.02 49.1919 37.46V37.52H46.1919V37.4C46.1919 36.58 45.7919 36.16 43.9519 36.16C42.4519 36.16 42.0719 36.42 42.0719 37.06C42.0719 37.58 42.3519 37.8 43.6719 37.96L45.8119 38.22C48.4919 38.52 49.4919 39.42 49.4919 41.08C49.4919 42.96 47.6319 44.2 44.5319 44.2ZM57.7623 44H55.2823C52.9423 44 51.5223 42.9 51.5223 40.38V36.46H49.9423V33.98H51.5223V32.04H54.5223V33.98H57.7623V36.46H54.5223V40.04C54.5223 41.04 54.9023 41.3 55.9623 41.3H57.7623V44ZM61.9659 44.2C59.8059 44.2 58.5059 43.2 58.5059 41.52C58.5059 40.04 59.6059 39.12 61.7459 38.9L66.0459 38.46V38.08C66.0459 36.78 65.4659 36.42 63.8659 36.42C62.3459 36.42 61.7259 36.82 61.7259 37.96V38.04H58.7059V37.98C58.7059 35.5 60.7859 33.78 64.0859 33.78C67.4259 33.78 69.0059 35.5 69.0059 38.12V44H66.2059V41.7H66.0459C65.5859 43.26 64.1859 44.2 61.9659 44.2ZM61.5259 41.32C61.5259 41.86 61.9459 42.08 62.8259 42.08C64.8659 42.08 65.9659 41.6 66.0459 40.18L62.5659 40.58C61.8459 40.64 61.5259 40.84 61.5259 41.32ZM73.5266 44H70.5266V33.98H73.3066V37.06H73.4866C73.7466 35.38 74.9466 33.78 77.5666 33.78C80.3066 33.78 81.6066 35.54 81.6066 37.76V44H78.6066V38.76C78.6066 37.16 77.9466 36.48 76.1066 36.48C74.2066 36.48 73.5266 37.24 73.5266 38.94V44ZM88.4642 44.2C85.0242 44.2 82.8242 42.16 82.8242 39C82.8242 35.8 85.0242 33.78 88.4642 33.78C91.6842 33.78 93.8842 35.5 93.8842 38.1V38.38H90.9042V38.22C90.9042 36.94 89.9642 36.48 88.4042 36.48C86.6242 36.48 85.8042 37.14 85.8042 39C85.8042 40.84 86.6242 41.5 88.4042 41.5C89.9642 41.5 90.9042 41.04 90.9042 39.76V39.6H93.8842V39.88C93.8842 42.46 91.6842 44.2 88.4642 44.2ZM100.495 44.2C97.155 44.2 94.875 42.56 94.875 39C94.875 35.8 97.135 33.78 100.435 33.78C103.715 33.78 105.895 35.5 105.895 38.64C105.895 39 105.855 39.26 105.815 39.6H97.655C97.735 41.14 98.455 41.8 100.395 41.8C102.175 41.8 102.795 41.34 102.795 40.48V40.28H105.795V40.5C105.795 42.68 103.675 44.2 100.495 44.2ZM100.375 36.12C98.595 36.12 97.835 36.72 97.695 38.02H103.015C102.935 36.7 102.135 36.12 100.375 36.12ZM113.347 39.58H110.347V38.88C110.347 37.42 111.367 36.74 112.607 36.26L114.007 35.7C114.967 35.32 115.427 35.02 115.427 34.34C115.427 33.66 115.027 33.14 112.707 33.14C110.267 33.14 109.527 33.78 109.527 35.06V35.84H106.567V35.3C106.567 32.7 108.347 30.4 112.927 30.4C116.867 30.4 118.427 32.12 118.427 34.24C118.427 36.32 117.007 37.16 115.687 37.68L114.207 38.26C113.467 38.56 113.347 38.84 113.347 39.34V39.58ZM113.587 44H110.147V40.74H113.587V44ZM11.78 69H0.8V55.6H3.8V66.3H11.78V69ZM18.3075 69.2C14.9675 69.2 12.6875 67.56 12.6875 64C12.6875 60.8 14.9475 58.78 18.2475 58.78C21.5275 58.78 23.7075 60.5 23.7075 63.64C23.7075 64 23.6675 64.26 23.6275 64.6H15.4675C15.5475 66.14 16.2675 66.8 18.2075 66.8C19.9875 66.8 20.6075 66.34 20.6075 65.48V65.28H23.6075V65.5C23.6075 67.68 21.4875 69.2 18.3075 69.2ZM18.1875 61.12C16.4075 61.12 15.6475 61.72 15.5075 63.02H20.8275C20.7475 61.7 19.9475 61.12 18.1875 61.12ZM32.0397 69H29.5597C27.2197 69 25.7997 67.9 25.7997 65.38V61.46H24.2197V58.98H25.7997V57.04H28.7997V58.98H32.0397V61.46H28.7997V65.04C28.7997 66.04 29.1797 66.3 30.2397 66.3H32.0397V69ZM40.3892 69.2C37.5692 69.2 36.2292 67.46 36.2292 65.22V58.98H39.2292V64.22C39.2292 65.84 39.9092 66.52 41.8092 66.52C43.7692 66.52 44.4692 65.76 44.4692 64.06V58.98H47.4692V69H44.6692V65.94H44.5092C44.2492 67.62 43.0292 69.2 40.3892 69.2ZM54.0631 69.2C50.6831 69.2 48.8231 67.88 48.8231 65.56V65.5H51.8231V65.68C51.8231 66.58 52.3831 66.82 54.0831 66.82C55.6831 66.82 56.0631 66.56 56.0631 65.96C56.0631 65.4 55.7631 65.24 54.5831 65.08L51.7631 64.74C49.7631 64.52 48.6431 63.62 48.6431 61.94C48.6431 60.18 50.1431 58.78 53.5831 58.78C56.8631 58.78 58.7231 60.02 58.7231 62.46V62.52H55.7231V62.4C55.7231 61.58 55.3231 61.16 53.4831 61.16C51.9831 61.16 51.6031 61.42 51.6031 62.06C51.6031 62.58 51.8831 62.8 53.2031 62.96L55.3431 63.22C58.0231 63.52 59.0231 64.42 59.0231 66.08C59.0231 67.96 57.1631 69.2 54.0631 69.2ZM66.3195 69H63.3195V55.6H66.3195V62.7H68.5995L71.1595 58.98H74.7195L71.0595 63.82L74.6595 69H71.1195L68.6195 65.38H66.3195V69ZM78.4484 69H75.4484V58.98H78.2284V62.06H78.4084C78.6684 60.38 79.8684 58.78 82.4884 58.78C85.2284 58.78 86.5284 60.54 86.5284 62.76V69H83.5284V63.76C83.5284 62.16 82.8684 61.48 81.0284 61.48C79.1284 61.48 78.4484 62.24 78.4484 63.94V69ZM93.3861 69.2C89.9661 69.2 87.6661 67.16 87.6661 64C87.6661 60.8 89.9661 58.78 93.3861 58.78C96.8061 58.78 99.1061 60.8 99.1061 64C99.1061 67.16 96.8061 69.2 93.3861 69.2ZM93.3861 66.54C95.4061 66.54 96.1261 65.76 96.1261 64C96.1261 62.24 95.4061 61.42 93.3861 61.42C91.3461 61.42 90.6461 62.24 90.6461 64C90.6461 65.76 91.3461 66.54 93.3861 66.54ZM106.011 69H102.271L99.5312 58.98H102.631L103.811 63.56L104.231 66.68H104.431L105.231 63.26L106.751 58.98H110.611L112.111 63.26L112.911 66.68H113.111L113.551 63.56L114.711 58.98H117.771L114.931 69H111.191L109.471 64.18L108.731 61.42H108.511L107.751 64.18L106.011 69ZM124.739 69.2C122.579 69.2 121.279 68.2 121.279 66.52C121.279 65.04 122.379 64.12 124.519 63.9L128.819 63.46V63.08C128.819 61.78 128.239 61.42 126.639 61.42C125.119 61.42 124.499 61.82 124.499 62.96V63.04H121.479V62.98C121.479 60.5 123.559 58.78 126.859 58.78C130.199 58.78 131.779 60.5 131.779 63.12V69H128.979V66.7H128.819C128.359 68.26 126.959 69.2 124.739 69.2ZM124.299 66.32C124.299 66.86 124.719 67.08 125.599 67.08C127.639 67.08 128.739 66.6 128.819 65.18L125.339 65.58C124.619 65.64 124.299 65.84 124.299 66.32ZM136.08 69H133.3V55.6H136.3V61.64H136.46C136.8 59.96 138.02 58.78 140.4 58.78C143.4 58.78 145.08 60.8 145.08 64C145.08 67.16 143.38 69.2 140.26 69.2C137.94 69.2 136.62 68.2 136.26 66.22H136.08V69ZM136.3 64.06C136.3 65.8 137.32 66.46 139.22 66.46C141.16 66.46 142.04 65.82 142.04 64C142.04 62.16 141.16 61.52 139.24 61.52C137.3 61.52 136.3 62.16 136.3 63.9V64.06ZM151.667 69.2C148.247 69.2 145.947 67.16 145.947 64C145.947 60.8 148.247 58.78 151.667 58.78C155.087 58.78 157.387 60.8 157.387 64C157.387 67.16 155.087 69.2 151.667 69.2ZM151.667 66.54C153.687 66.54 154.407 65.76 154.407 64C154.407 62.24 153.687 61.42 151.667 61.42C149.627 61.42 148.927 62.24 148.927 64C148.927 65.76 149.627 66.54 151.667 66.54ZM162.753 69.2C159.933 69.2 158.593 67.46 158.593 65.22V58.98H161.593V64.22C161.593 65.84 162.273 66.52 164.173 66.52C166.133 66.52 166.833 65.76 166.833 64.06V58.98H169.833V69H167.033V65.94H166.873C166.613 67.62 165.393 69.2 162.753 69.2ZM178.426 69H175.946C173.606 69 172.186 67.9 172.186 65.38V61.46H170.606V58.98H172.186V57.04H175.186V58.98H178.426V61.46H175.186V65.04C175.186 66.04 175.566 66.3 176.626 66.3H178.426V69ZM185.636 57.96H182.636V55.6H185.636V57.96ZM185.636 69H182.636V58.98H185.636V69ZM194.266 69H191.786C189.446 69 188.026 67.9 188.026 65.38V61.46H186.446V58.98H188.026V57.04H191.026V58.98H194.266V61.46H191.026V65.04C191.026 66.04 191.406 66.3 192.466 66.3H194.266V69Z" fill="#D434FE"/>
</svg>
