<svg width="89" height="17" viewBox="0 0 89 17" fill="none" xmlns="http://www.w3.org/2000/svg">
<path d="M5.38143 1.37985H11.1768C13.3845 1.37985 15.1783 3.17365 15.1783 5.3814V11.1768C15.1783 12.238 14.7567 13.2558 14.0063 14.0063C13.2559 14.7567 12.2381 15.1783 11.1768 15.1783H5.38143C3.17368 15.1783 1.37988 13.3845 1.37988 11.1768V5.3814C1.37988 4.32013 1.80147 3.30232 2.55191 2.55188C3.30235 1.80144 4.32016 1.37985 5.38143 1.37985ZM5.24345 2.7597C4.58472 2.7597 3.95298 3.02137 3.48719 3.48716C3.0214 3.95295 2.75973 4.58469 2.75973 5.24342V11.3147C2.75973 12.6877 3.8705 13.7985 5.24345 13.7985H11.3148C11.9735 13.7985 12.6052 13.5368 13.071 13.071C13.5368 12.6052 13.7985 11.9735 13.7985 11.3147V5.24342C13.7985 3.87047 12.6877 2.7597 11.3148 2.7597H5.24345ZM11.9012 3.79458C12.1299 3.79458 12.3493 3.88544 12.511 4.04717C12.6727 4.2089 12.7636 4.42826 12.7636 4.65698C12.7636 4.88571 12.6727 5.10506 12.511 5.26679C12.3493 5.42853 12.1299 5.51939 11.9012 5.51939C11.6725 5.51939 11.4531 5.42853 11.2914 5.26679C11.1297 5.10506 11.0388 4.88571 11.0388 4.65698C11.0388 4.42826 11.1297 4.2089 11.2914 4.04717C11.4531 3.88544 11.6725 3.79458 11.9012 3.79458ZM8.27911 4.82946C9.194 4.82946 10.0714 5.1929 10.7184 5.83983C11.3653 6.48676 11.7287 7.36418 11.7287 8.27908C11.7287 9.19397 11.3653 10.0714 10.7184 10.7183C10.0714 11.3652 9.194 11.7287 8.27911 11.7287C7.36421 11.7287 6.48679 11.3652 5.83986 10.7183C5.19294 10.0714 4.82949 9.19397 4.82949 8.27908C4.82949 7.36418 5.19294 6.48676 5.83986 5.83983C6.48679 5.1929 7.36421 4.82946 8.27911 4.82946ZM8.27911 6.20931C7.73017 6.20931 7.20372 6.42737 6.81556 6.81553C6.4274 7.20369 6.20934 7.73014 6.20934 8.27908C6.20934 8.82801 6.4274 9.35447 6.81556 9.74262C7.20372 10.1308 7.73017 10.3488 8.27911 10.3488C8.82804 10.3488 9.3545 10.1308 9.74265 9.74262C10.1308 9.35447 10.3489 8.82801 10.3489 8.27908C10.3489 7.73014 10.1308 7.20369 9.74265 6.81553C9.3545 6.42737 8.82804 6.20931 8.27911 6.20931Z" fill="white"/>
<path d="M33.8376 2.75969H29.6667L34.5884 9.21867L29.9349 14.4884H31.5139L35.3201 10.1787L38.6044 14.4884H42.7753L37.6463 7.75728L42.0603 2.75969H40.4813L36.9146 6.79787L33.8376 2.75969ZM39.2002 13.3155L32.0501 3.93256H33.2418L40.3919 13.3155H39.2002Z" fill="white"/>
<path d="M58.6434 10.0039H60.3682L61.0582 7.24418H58.6434V5.86434C58.6434 5.15372 58.6434 4.48449 60.0233 4.48449H61.0582V2.16635C60.8332 2.13669 59.9839 2.06976 59.087 2.06976C57.2139 2.06976 55.8837 3.21296 55.8837 5.3124V7.24418H53.814V10.0039H55.8837V15.8682H58.6434V10.0039Z" fill="#F8F8F8"/>
<path d="M77.2299 3.44961C77.2297 3.81557 77.0842 4.16647 76.8253 4.42511C76.5664 4.68375 76.2153 4.82895 75.8494 4.82877C75.4834 4.82858 75.1325 4.68303 74.8739 4.42413C74.6152 4.16523 74.47 3.81419 74.4702 3.44823C74.4704 3.08227 74.6159 2.73138 74.8749 2.47274C75.1338 2.21409 75.4848 2.06889 75.8507 2.06908C76.2167 2.06926 76.5676 2.21481 76.8262 2.47371C77.0849 2.73261 77.2301 3.08365 77.2299 3.44961ZM77.2713 5.85054H74.5116V14.4884H77.2713V5.85054ZM81.6316 5.85054H78.8857V14.4884H81.604V9.95558C81.604 7.43046 84.8949 7.19589 84.8949 9.95558V14.4884H87.6201V9.01729C87.6201 4.76046 82.7493 4.91915 81.604 7.00961L81.6316 5.85054Z" fill="#F8F8F8"/>
</svg>
