<svg width="291" height="85" viewBox="0 0 291 85" fill="none" xmlns="http://www.w3.org/2000/svg">
<path d="M27.2 29.4V55C27.2 57.8587 26.2827 60.0773 24.448 61.656C22.656 63.192 19.9467 63.96 16.32 63.96C12.736 63.96 10.0267 63.192 8.192 61.656C6.35733 60.0773 5.44 57.8587 5.44 55V29.4C5.44 26.5413 6.336 24.344 8.128 22.808C9.96267 21.2293 12.672 20.44 16.256 20.44C19.8827 20.44 22.6133 21.2293 24.448 22.808C26.2827 24.344 27.2 26.5413 27.2 29.4ZM22.72 55V29.4C22.72 25.9867 20.5867 24.28 16.32 24.28C12.0533 24.28 9.92 25.9867 9.92 29.4V55C9.92 58.4133 12.0533 60.12 16.32 60.12C20.5867 60.12 22.72 58.4133 22.72 55ZM59.825 29.4V55C59.825 57.8587 58.9077 60.0773 57.073 61.656C55.281 63.192 52.5717 63.96 48.945 63.96C45.361 63.96 42.6517 63.192 40.817 61.656C38.9823 60.0773 38.065 57.8587 38.065 55V29.4C38.065 26.5413 38.961 24.344 40.753 22.808C42.5877 21.2293 45.297 20.44 48.881 20.44C52.5077 20.44 55.2383 21.2293 57.073 22.808C58.9077 24.344 59.825 26.5413 59.825 29.4ZM55.345 55V29.4C55.345 25.9867 53.2117 24.28 48.945 24.28C44.6783 24.28 42.545 25.9867 42.545 29.4V55C42.545 58.4133 44.6783 60.12 48.945 60.12C53.2117 60.12 55.345 58.4133 55.345 55ZM136.7 29.4V55C136.7 57.8587 135.783 60.0773 133.948 61.656C132.156 63.192 129.447 63.96 125.82 63.96C122.236 63.96 119.527 63.192 117.692 61.656C115.857 60.0773 114.94 57.8587 114.94 55V29.4C114.94 26.5413 115.836 24.344 117.628 22.808C119.463 21.2293 122.172 20.44 125.756 20.44C129.383 20.44 132.113 21.2293 133.948 22.808C135.783 24.344 136.7 26.5413 136.7 29.4ZM132.22 55V29.4C132.22 25.9867 130.087 24.28 125.82 24.28C121.553 24.28 119.42 25.9867 119.42 29.4V55C119.42 58.4133 121.553 60.12 125.82 60.12C130.087 60.12 132.22 58.4133 132.22 55ZM169.325 29.4V55C169.325 57.8587 168.408 60.0773 166.573 61.656C164.781 63.192 162.072 63.96 158.445 63.96C154.861 63.96 152.152 63.192 150.317 61.656C148.482 60.0773 147.565 57.8587 147.565 55V29.4C147.565 26.5413 148.461 24.344 150.253 22.808C152.088 21.2293 154.797 20.44 158.381 20.44C162.008 20.44 164.738 21.2293 166.573 22.808C168.408 24.344 169.325 26.5413 169.325 29.4ZM164.845 55V29.4C164.845 25.9867 162.712 24.28 158.445 24.28C154.178 24.28 152.045 25.9867 152.045 29.4V55C152.045 58.4133 154.178 60.12 158.445 60.12C162.712 60.12 164.845 58.4133 164.845 55ZM246.2 29.4V55C246.2 57.8587 245.283 60.0773 243.448 61.656C241.656 63.192 238.947 63.96 235.32 63.96C231.736 63.96 229.027 63.192 227.192 61.656C225.357 60.0773 224.44 57.8587 224.44 55V29.4C224.44 26.5413 225.336 24.344 227.128 22.808C228.963 21.2293 231.672 20.44 235.256 20.44C238.883 20.44 241.613 21.2293 243.448 22.808C245.283 24.344 246.2 26.5413 246.2 29.4ZM241.72 55V29.4C241.72 25.9867 239.587 24.28 235.32 24.28C231.053 24.28 228.92 25.9867 228.92 29.4V55C228.92 58.4133 231.053 60.12 235.32 60.12C239.587 60.12 241.72 58.4133 241.72 55ZM278.825 29.4V55C278.825 57.8587 277.908 60.0773 276.073 61.656C274.281 63.192 271.572 63.96 267.945 63.96C264.361 63.96 261.652 63.192 259.817 61.656C257.982 60.0773 257.065 57.8587 257.065 55V29.4C257.065 26.5413 257.961 24.344 259.753 22.808C261.588 21.2293 264.297 20.44 267.881 20.44C271.508 20.44 274.238 21.2293 276.073 22.808C277.908 24.344 278.825 26.5413 278.825 29.4ZM274.345 55V29.4C274.345 25.9867 272.212 24.28 267.945 24.28C263.678 24.28 261.545 25.9867 261.545 29.4V55C261.545 58.4133 263.678 60.12 267.945 60.12C272.212 60.12 274.345 58.4133 274.345 55Z" fill="white"/>
<path d="M64.358 59V49.214H66.01V53.456H70.868V49.214H72.52V59H70.868V54.996H66.01V59H64.358Z" fill="white"/>
<path d="M176.01 62H174.358V52.214H176.934L179.888 58.36L182.842 52.214H185.404V62H183.752V54.356L180.336 61.146H179.412L176.01 54.356V62Z" fill="white"/>
<path d="M286.312 54.502C285.836 54.502 285.444 54.6 285.136 54.796C284.828 54.992 284.674 55.2907 284.674 55.692C284.674 56.084 284.828 56.3873 285.136 56.602C285.444 56.8073 286.097 57.0313 287.096 57.274C288.104 57.5167 288.86 57.8573 289.364 58.296C289.877 58.7347 290.134 59.3833 290.134 60.242C290.134 61.0913 289.812 61.782 289.168 62.314C288.524 62.846 287.679 63.112 286.634 63.112C285.103 63.112 283.745 62.5847 282.56 61.53L283.596 60.284C284.585 61.1427 285.612 61.572 286.676 61.572C287.208 61.572 287.628 61.46 287.936 61.236C288.253 61.0027 288.412 60.6993 288.412 60.326C288.412 59.9433 288.263 59.6493 287.964 59.444C287.675 59.2293 287.171 59.038 286.452 58.87C285.733 58.6927 285.187 58.534 284.814 58.394C284.441 58.2447 284.109 58.0533 283.82 57.82C283.241 57.3813 282.952 56.7093 282.952 55.804C282.952 54.8987 283.279 54.2033 283.932 53.718C284.595 53.2233 285.411 52.976 286.382 52.976C287.007 52.976 287.628 53.0787 288.244 53.284C288.86 53.4893 289.392 53.7787 289.84 54.152L288.958 55.398C288.669 55.1367 288.277 54.922 287.782 54.754C287.287 54.586 286.797 54.502 286.312 54.502Z" fill="white"/>
</svg>
