<svg width="397" height="66" viewBox="0 0 397 66" fill="none" xmlns="http://www.w3.org/2000/svg">
<path d="M6.976 22H0.96V0.559999H6.976V22ZM14.9135 22H8.8975V5.872H14.5295V10.768H14.8495C15.2015 8.08 16.9615 5.552 21.2815 5.552C25.6335 5.552 27.6815 8.176 27.6815 11.664V22H21.6655V13.872C21.6655 11.632 20.8335 10.928 18.2095 10.928C15.5535 10.928 14.9135 11.6 14.9135 13.68V22ZM41.524 22H37.3C33.268 22 30.868 20.048 30.868 15.856V10.8H28.5V5.872H30.868V3.088H36.884V5.872H41.524V10.8H36.884V14.992C36.884 16.272 37.268 16.592 38.644 16.592H41.524V22ZM48.976 22H42.96V5.872H48.592V10.096H48.912C49.36 7.44 51.024 5.552 54.224 5.552C57.776 5.552 59.184 7.888 59.184 11.12V14.32H53.168V12.432C53.168 11.088 52.656 10.608 51.088 10.608C49.456 10.608 48.976 11.088 48.976 12.368V22ZM69.388 22.32C63.788 22.32 59.98 19.152 59.98 13.936C59.98 8.688 63.788 5.552 69.388 5.552C74.988 5.552 78.796 8.688 78.796 13.936C78.796 19.152 74.988 22.32 69.388 22.32ZM69.388 17.008C72.108 17.008 72.844 16.272 72.844 13.936C72.844 11.6 72.108 10.832 69.388 10.832C66.668 10.832 65.932 11.6 65.932 13.936C65.932 16.272 66.668 17.008 69.388 17.008ZM87.5693 22.32C82.6413 22.32 79.9213 19.152 79.9213 13.936C79.9213 8.688 82.5773 5.552 87.3133 5.552C91.1213 5.552 92.9133 7.344 93.3933 10.032H93.7133V0.559999H99.7293V22H94.0973V17.648H93.7773C93.2653 20.848 91.3453 22.32 87.5693 22.32ZM86.0013 13.936C86.0013 16.08 86.9613 16.816 89.7453 16.816C92.4333 16.816 93.7133 16.304 93.7133 13.968V13.744C93.7133 11.472 92.4333 11.024 89.7453 11.024C86.9613 11.024 86.0013 11.792 86.0013 13.936ZM108.272 22.32C103.76 22.32 101.648 19.696 101.648 16.208V5.872H107.664V14C107.664 16.24 108.528 16.944 111.28 16.944C114.064 16.944 114.736 16.272 114.736 14.192V5.872H120.752V22H115.12V17.104H114.8C114.448 19.792 112.656 22.32 108.272 22.32ZM131.61 22.32C125.882 22.32 122.234 19.152 122.234 13.936C122.234 8.688 125.882 5.552 131.61 5.552C137.114 5.552 140.634 8.368 140.634 12.688V13.2H134.65V12.944C134.65 11.28 133.434 10.928 131.482 10.928C129.274 10.928 128.218 11.408 128.218 13.936C128.218 16.432 129.274 16.912 131.482 16.912C133.434 16.912 134.65 16.592 134.65 14.928V14.64H140.634V15.184C140.634 19.472 137.114 22.32 131.61 22.32ZM154.305 22H150.081C146.049 22 143.649 20.048 143.649 15.856V10.8H141.281V5.872H143.649V3.088H149.665V5.872H154.305V10.8H149.665V14.992C149.665 16.272 150.049 16.592 151.425 16.592H154.305V22ZM161.757 4.4H155.741V0.559999H161.757V4.4ZM161.757 22H155.741V5.872H161.757V22ZM172.607 22.32C167.007 22.32 163.199 19.152 163.199 13.936C163.199 8.688 167.007 5.552 172.607 5.552C178.207 5.552 182.015 8.688 182.015 13.936C182.015 19.152 178.207 22.32 172.607 22.32ZM172.607 17.008C175.327 17.008 176.063 16.272 176.063 13.936C176.063 11.6 175.327 10.832 172.607 10.832C169.887 10.832 169.151 11.6 169.151 13.936C169.151 16.272 169.887 17.008 172.607 17.008ZM189.476 22H183.46V5.872H189.092V10.768H189.412C189.764 8.08 191.524 5.552 195.844 5.552C200.196 5.552 202.244 8.176 202.244 11.664V22H196.228V13.872C196.228 11.632 195.396 10.928 192.772 10.928C190.116 10.928 189.476 11.6 189.476 13.68V22ZM220.555 22H216.331C212.299 22 209.899 20.048 209.899 15.856V10.8H207.531V5.872H209.899V3.088H215.915V5.872H220.555V10.8H215.915V14.992C215.915 16.272 216.299 16.592 217.675 16.592H220.555V22ZM230.919 22.32C225.319 22.32 221.511 19.152 221.511 13.936C221.511 8.688 225.319 5.552 230.919 5.552C236.519 5.552 240.327 8.688 240.327 13.936C240.327 19.152 236.519 22.32 230.919 22.32ZM230.919 17.008C233.639 17.008 234.375 16.272 234.375 13.936C234.375 11.6 233.639 10.832 230.919 10.832C228.199 10.832 227.463 11.6 227.463 13.936C227.463 16.272 228.199 17.008 230.919 17.008ZM253.409 20.208C248.609 20.208 245.921 17.456 245.921 12.848C245.921 8.304 248.801 5.552 253.569 5.552C256.833 5.552 259.009 6.864 259.457 9.648H259.777V5.872H265.409V19.28C265.409 25.04 261.985 27.76 255.777 27.76C250.145 27.76 246.881 25.392 246.881 21.168H252.897C252.897 22.48 253.057 22.8 256.193 22.8C258.785 22.8 259.393 22.416 259.393 19.696V16.304H259.073C258.657 18.64 256.961 20.208 253.409 20.208ZM252.001 12.848C252.001 14.448 252.769 15.056 255.585 15.056C258.273 15.056 259.393 14.736 259.393 13.04V12.816C259.393 11.088 258.273 10.736 255.585 10.736C252.769 10.736 252.001 11.28 252.001 12.848ZM276.327 22.32C270.855 22.32 267.015 19.984 267.015 13.936C267.015 8.688 270.823 5.552 276.199 5.552C281.767 5.552 285.319 8.336 285.319 13.52C285.319 14.064 285.287 14.48 285.223 15.056H272.583C272.679 17.008 273.543 17.552 276.103 17.552C278.535 17.552 279.175 17.136 279.175 16.176V15.824H285.191V16.208C285.191 19.792 281.767 22.32 276.327 22.32ZM276.071 10.16C273.863 10.16 272.935 10.64 272.679 12.016H279.495C279.271 10.64 278.311 10.16 276.071 10.16ZM298.993 22H294.769C290.737 22 288.337 20.048 288.337 15.856V10.8H285.969V5.872H288.337V3.088H294.353V5.872H298.993V10.8H294.353V14.992C294.353 16.272 294.737 16.592 296.113 16.592H298.993V22ZM306.445 22H300.429V0.559999H306.445V22ZM314.382 4.4H308.366V0.559999H314.382V4.4ZM314.382 22H308.366V5.872H314.382V22ZM322.32 22H316.304V5.872H321.936V10.768H322.256C322.608 8.08 324.368 5.552 328.688 5.552C333.04 5.552 335.088 8.176 335.088 11.664V22H329.072V13.872C329.072 11.632 328.24 10.928 325.616 10.928C322.96 10.928 322.32 11.6 322.32 13.68V22ZM342.882 22H336.866V0.559999H342.882V11.472H345.73L349.282 5.872H356.386L350.658 13.712L356.29 22H349.186L345.794 16.848H342.882V22ZM366.015 22.32C360.543 22.32 356.703 19.984 356.703 13.936C356.703 8.688 360.511 5.552 365.887 5.552C371.455 5.552 375.007 8.336 375.007 13.52C375.007 14.064 374.975 14.48 374.911 15.056H362.271C362.367 17.008 363.231 17.552 365.791 17.552C368.223 17.552 368.863 17.136 368.863 16.176V15.824H374.878V16.208C374.878 19.792 371.455 22.32 366.015 22.32ZM365.759 10.16C363.551 10.16 362.623 10.64 362.367 12.016H369.183C368.959 10.64 367.999 10.16 365.759 10.16ZM383.944 22.32C379.016 22.32 376.296 19.152 376.296 13.936C376.296 8.688 378.952 5.552 383.688 5.552C387.496 5.552 389.288 7.344 389.768 10.032H390.088V0.559999H396.104V22H390.472V17.648H390.152C389.64 20.848 387.72 22.32 383.944 22.32ZM382.376 13.936C382.376 16.08 383.336 16.816 386.12 16.816C388.808 16.816 390.088 16.304 390.088 13.968V13.744C390.088 11.472 388.808 11.024 386.12 11.024C383.336 11.024 382.376 11.792 382.376 13.936Z" fill="white"/>
<path d="M13.024 65H8.8C4.768 65 2.368 63.048 2.368 58.856V53.8H0V48.872H2.368V46.088H8.384V48.872H13.024V53.8H8.384V57.992C8.384 59.272 8.768 59.592 10.144 59.592H13.024V65ZM23.452 65.32C17.98 65.32 14.14 62.984 14.14 56.936C14.14 51.688 17.948 48.552 23.324 48.552C28.892 48.552 32.444 51.336 32.444 56.52C32.444 57.064 32.412 57.48 32.348 58.056H19.708C19.804 60.008 20.668 60.552 23.228 60.552C25.66 60.552 26.3 60.136 26.3 59.176V58.824H32.316V59.208C32.316 62.792 28.892 65.32 23.452 65.32ZM23.196 53.16C20.988 53.16 20.06 53.64 19.804 55.016H26.62C26.396 53.64 25.436 53.16 23.196 53.16ZM43.1098 65.32C37.3818 65.32 33.7338 62.152 33.7338 56.936C33.7338 51.688 37.3818 48.552 43.1098 48.552C48.6138 48.552 52.1338 51.368 52.1338 55.688V56.2H46.1498V55.944C46.1498 54.28 44.9338 53.928 42.9818 53.928C40.7738 53.928 39.7178 54.408 39.7178 56.936C39.7178 59.432 40.7738 59.912 42.9818 59.912C44.9338 59.912 46.1498 59.592 46.1498 57.928V57.64H52.1338V58.184C52.1338 62.472 48.6138 65.32 43.1098 65.32ZM59.7573 65H53.7413V43.56H59.7573V53.768H60.0773C60.5893 51.048 62.3813 48.552 66.5093 48.552C70.7973 48.552 72.8453 51.272 72.8453 54.856V65H66.8293V56.872C66.8293 54.632 65.9653 53.928 63.2133 53.928C60.4293 53.928 59.7573 54.6 59.7573 56.68V65ZM85.1323 65H79.1163V43.56H85.1323V51.528H95.1163V43.56H101.132V65H95.1163V56.936H85.1323V65ZM108.27 65.32C104.622 65.32 102.574 63.656 102.574 60.904C102.574 58.632 104.142 57 107.79 56.648L114.35 56.008V55.688C114.35 54.056 113.646 53.8 111.502 53.8C109.518 53.8 108.91 54.184 108.91 55.528V55.656H102.894V55.592C102.894 51.304 106.478 48.552 111.95 48.552C117.582 48.552 120.302 51.304 120.302 55.816V65H114.67V61.608H114.35C113.742 63.88 111.758 65.32 108.27 65.32ZM108.622 60.52C108.622 61.032 109.134 61.128 110.062 61.128C112.974 61.128 114.158 60.776 114.318 59.336L109.39 59.912C108.846 59.976 108.622 60.168 108.622 60.52ZM131.141 65.32C125.413 65.32 121.765 62.152 121.765 56.936C121.765 51.688 125.413 48.552 131.141 48.552C136.645 48.552 140.165 51.368 140.165 55.688V56.2H134.181V55.944C134.181 54.28 132.965 53.928 131.013 53.928C128.805 53.928 127.749 54.408 127.749 56.936C127.749 59.432 128.805 59.912 131.013 59.912C132.965 59.912 134.181 59.592 134.181 57.928V57.64H140.165V58.184C140.165 62.472 136.645 65.32 131.141 65.32ZM147.789 65H141.773V43.56H147.789V54.472H150.637L154.189 48.872H161.293L155.565 56.712L161.197 65H154.093L150.701 59.848H147.789V65ZM167.145 65.32C163.497 65.32 161.449 63.656 161.449 60.904C161.449 58.632 163.017 57 166.665 56.648L173.225 56.008V55.688C173.225 54.056 172.521 53.8 170.377 53.8C168.393 53.8 167.785 54.184 167.785 55.528V55.656H161.769V55.592C161.769 51.304 165.353 48.552 170.825 48.552C176.457 48.552 179.177 51.304 179.177 55.816V65H173.545V61.608H173.225C172.617 63.88 170.633 65.32 167.145 65.32ZM167.497 60.52C167.497 61.032 168.009 61.128 168.937 61.128C171.849 61.128 173.033 60.776 173.193 59.336L168.265 59.912C167.721 59.976 167.497 60.168 167.497 60.52ZM193.024 65H188.8C184.768 65 182.368 63.048 182.368 58.856V53.8H180V48.872H182.368V46.088H188.384V48.872H193.024V53.8H188.384V57.992C188.384 59.272 188.768 59.592 190.144 59.592H193.024V65ZM200.476 65H194.46V43.56H200.476V53.768H200.796C201.308 51.048 203.1 48.552 207.228 48.552C211.516 48.552 213.564 51.272 213.564 54.856V65H207.548V56.872C207.548 54.632 206.684 53.928 203.932 53.928C201.148 53.928 200.476 54.6 200.476 56.68V65ZM224.294 65.32C218.694 65.32 214.886 62.152 214.886 56.936C214.886 51.688 218.694 48.552 224.294 48.552C229.894 48.552 233.702 51.688 233.702 56.936C233.702 62.152 229.894 65.32 224.294 65.32ZM224.294 60.008C227.014 60.008 227.75 59.272 227.75 56.936C227.75 54.6 227.014 53.832 224.294 53.832C221.574 53.832 220.838 54.6 220.838 56.936C220.838 59.272 221.574 60.008 224.294 60.008ZM241.164 65H235.148V48.872H240.78V53.768H241.1C241.452 51.08 243.212 48.552 247.532 48.552C251.884 48.552 253.932 51.176 253.932 54.664V65H247.916V56.872C247.916 54.632 247.084 53.928 244.46 53.928C241.804 53.928 241.164 54.6 241.164 56.68V65ZM271.283 65H265.267V50.28H259.539V46.216H260.339C262.675 46.216 264.499 45.736 265.683 43.56H271.283V65ZM281.018 65H273.21V58.856H281.018V65ZM293.713 65.32C286.417 65.32 282.609 60.872 282.609 54.28C282.609 47.72 286.417 43.24 293.713 43.24C300.977 43.24 304.785 47.72 304.785 54.28C304.785 60.872 300.977 65.32 293.713 65.32ZM293.713 59.464C297.361 59.464 298.321 58.248 298.321 54.28C298.321 50.312 297.361 49.096 293.713 49.096C290.033 49.096 289.073 50.312 289.073 54.28C289.073 58.248 290.033 59.464 293.713 59.464Z" fill="#D434FE"/>
</svg>
