<svg width="107" height="42" viewBox="0 0 107 42" fill="none" xmlns="http://www.w3.org/2000/svg">
<path d="M9.40297 14H5.64297V0.6H13.463C17.003 0.6 18.863 2.08 18.863 4.7C18.863 6.82 17.803 8.08 15.243 8.4V8.6C16.623 8.96 17.063 9.62 17.563 10.64L19.223 14H14.883L13.283 10.72C12.803 9.72 12.403 9.44 10.943 9.44H9.40297V14ZM9.40297 3.98V6.64H13.423C14.523 6.64 14.923 6.44 14.923 5.3C14.923 4.24 14.523 3.98 13.423 3.98H9.40297ZM23.9627 14.2C21.1427 14.2 19.8227 12.56 19.8227 10.38V3.92H23.5827V9C23.5827 10.4 24.1227 10.84 25.8427 10.84C27.5827 10.84 28.0027 10.42 28.0027 9.12V3.92H31.7627V14H28.2427V10.94H28.0427C27.8227 12.62 26.7027 14.2 23.9627 14.2ZM36.6491 14H32.8891V0.6H36.6491V14ZM43.47 14.2C40.05 14.2 37.65 12.74 37.65 8.96C37.65 5.68 40.03 3.72 43.39 3.72C46.87 3.72 49.09 5.46 49.09 8.7C49.09 9.04 49.07 9.3 49.03 9.66H41.13C41.19 10.88 41.73 11.22 43.33 11.22C44.85 11.22 45.25 10.96 45.25 10.36V10.14H49.01V10.38C49.01 12.62 46.87 14.2 43.47 14.2ZM43.31 6.6C41.93 6.6 41.35 6.9 41.19 7.76H45.45C45.31 6.9 44.71 6.6 43.31 6.6ZM55.5161 14.2C51.9561 14.2 50.0561 12.82 50.0561 10.5V10.42H53.8161V10.62C53.8161 11.18 54.1761 11.24 55.5361 11.24C56.8361 11.24 57.0361 11.1 57.0361 10.76C57.0361 10.44 56.8761 10.36 55.9361 10.26L53.0161 9.94C50.9361 9.72 49.8161 8.74 49.8161 7.04C49.8161 5.26 51.2361 3.72 55.0161 3.72C58.5161 3.72 60.3761 4.98 60.3761 7.46V7.54H56.6161V7.42C56.6161 6.9 56.4161 6.66 54.8961 6.66C53.6761 6.66 53.5161 6.82 53.5161 7.2C53.5161 7.48 53.6761 7.62 54.8561 7.74L56.8561 7.96C59.7961 8.28 60.7361 9.26 60.7361 10.96C60.7361 12.84 58.8561 14.2 55.5161 14.2ZM67.692 14.2C65.412 14.2 64.132 13.16 64.132 11.44C64.132 10.02 65.112 9 67.392 8.78L71.492 8.38V8.18C71.492 7.16 71.052 7 69.712 7C68.472 7 68.092 7.24 68.092 8.08V8.16H64.332V8.12C64.332 5.44 66.572 3.72 69.992 3.72C73.512 3.72 75.212 5.44 75.212 8.26V14H71.692V11.88H71.492C71.112 13.3 69.872 14.2 67.692 14.2ZM67.912 11.2C67.912 11.52 68.232 11.58 68.812 11.58C70.632 11.58 71.372 11.36 71.472 10.46L68.392 10.82C68.052 10.86 67.912 10.98 67.912 11.2ZM80.0866 14H76.3266V3.92H79.8466V6.98H80.0466C80.2666 5.3 81.3666 3.72 84.0666 3.72C86.7866 3.72 88.0666 5.36 88.0666 7.54V14H84.3066V8.92C84.3066 7.52 83.7866 7.08 82.1466 7.08C80.4866 7.08 80.0866 7.5 80.0866 8.8V14ZM93.7581 14.2C90.6781 14.2 88.9781 12.22 88.9781 8.96C88.9781 5.68 90.6381 3.72 93.5981 3.72C95.9781 3.72 97.0981 4.84 97.3981 6.52H97.5981V0.6H101.358V14H97.8381V11.28H97.6381C97.3181 13.28 96.1181 14.2 93.7581 14.2ZM92.7781 8.96C92.7781 10.3 93.3781 10.76 95.1181 10.76C96.7981 10.76 97.5981 10.44 97.5981 8.98V8.84C97.5981 7.42 96.7981 7.14 95.1181 7.14C93.3781 7.14 92.7781 7.62 92.7781 8.96Z" fill="white"/>
<path d="M7.50383 41.2C3.28383 41.2 0.823828 38.48 0.823828 34.3C0.823828 30.12 3.70383 27.4 8.58383 27.4C13.1238 27.4 15.8238 29.4 15.8238 32.72V32.86H11.6238V32.72C11.6238 31.48 10.8638 31 8.48383 31C5.60383 31 4.82383 31.64 4.82383 34.3C4.82383 36.96 5.56383 37.6 8.28383 37.6C11.0638 37.6 11.8638 37.46 12.0438 36.44H7.92383V33.68H15.8438V41H12.3438V38.14H12.1438C11.7838 39.7 10.6438 41.2 7.50383 41.2ZM21.1013 41.2C18.2813 41.2 16.9613 39.56 16.9613 37.38V30.92H20.7213V36C20.7213 37.4 21.2613 37.84 22.9813 37.84C24.7213 37.84 25.1413 37.42 25.1413 36.12V30.92H28.9013V41H25.3813V37.94H25.1813C24.9613 39.62 23.8413 41.2 21.1013 41.2ZM33.7877 30H30.0277V27.6H33.7877V30ZM33.7877 41H30.0277V30.92H33.7877V41ZM39.5687 41.2C36.4887 41.2 34.7887 39.22 34.7887 35.96C34.7887 32.68 36.4487 30.72 39.4087 30.72C41.7887 30.72 42.9087 31.84 43.2087 33.52H43.4087V27.6H47.1687V41H43.6487V38.28H43.4487C43.1287 40.28 41.9287 41.2 39.5687 41.2ZM38.5887 35.96C38.5887 37.3 39.1887 37.76 40.9287 37.76C42.6087 37.76 43.4087 37.44 43.4087 35.98V35.84C43.4087 34.42 42.6087 34.14 40.9287 34.14C39.1887 34.14 38.5887 34.62 38.5887 35.96ZM53.9876 41.2C50.5676 41.2 48.1676 39.74 48.1676 35.96C48.1676 32.68 50.5476 30.72 53.9076 30.72C57.3876 30.72 59.6076 32.46 59.6076 35.7C59.6076 36.04 59.5876 36.3 59.5476 36.66H51.6476C51.7076 37.88 52.2476 38.22 53.8476 38.22C55.3676 38.22 55.7676 37.96 55.7676 37.36V37.14H59.5276V37.38C59.5276 39.62 57.3876 41.2 53.9876 41.2ZM53.8276 33.6C52.4476 33.6 51.8676 33.9 51.7076 34.76H55.9676C55.8276 33.9 55.2276 33.6 53.8276 33.6ZM64.3737 41H60.6137V27.6H64.3737V41ZM69.3346 30H65.5746V27.6H69.3346V30ZM69.3346 41H65.5746V30.92H69.3346V41ZM74.2955 41H70.5355V30.92H74.0555V33.98H74.2555C74.4755 32.3 75.5755 30.72 78.2755 30.72C80.9955 30.72 82.2755 32.36 82.2755 34.54V41H78.5155V35.92C78.5155 34.52 77.9955 34.08 76.3555 34.08C74.6955 34.08 74.2955 34.5 74.2955 35.8V41ZM89.0071 41.2C85.5871 41.2 83.1871 39.74 83.1871 35.96C83.1871 32.68 85.5671 30.72 88.9271 30.72C92.4071 30.72 94.6271 32.46 94.6271 35.7C94.6271 36.04 94.6071 36.3 94.5671 36.66H86.6671C86.7271 37.88 87.2671 38.22 88.8671 38.22C90.3871 38.22 90.7871 37.96 90.7871 37.36V37.14H94.5471V37.38C94.5471 39.62 92.4071 41.2 89.0071 41.2ZM88.8471 33.6C87.4671 33.6 86.8871 33.9 86.7271 34.76H90.9871C90.8471 33.9 90.2471 33.6 88.8471 33.6ZM101.053 41.2C97.4932 41.2 95.5932 39.82 95.5932 37.5V37.42H99.3532V37.62C99.3532 38.18 99.7132 38.24 101.073 38.24C102.373 38.24 102.573 38.1 102.573 37.76C102.573 37.44 102.413 37.36 101.473 37.26L98.5532 36.94C96.4732 36.72 95.3532 35.74 95.3532 34.04C95.3532 32.26 96.7732 30.72 100.553 30.72C104.053 30.72 105.913 31.98 105.913 34.46V34.54H102.153V34.42C102.153 33.9 101.953 33.66 100.433 33.66C99.2132 33.66 99.0532 33.82 99.0532 34.2C99.0532 34.48 99.2132 34.62 100.393 34.74L102.393 34.96C105.333 35.28 106.273 36.26 106.273 37.96C106.273 39.84 104.393 41.2 101.053 41.2Z" fill="#D434FE"/>
</svg>
