<svg width="247" height="42" viewBox="0 0 247 42" fill="none" xmlns="http://www.w3.org/2000/svg">
<path d="M3.77797 14H0.0179688V0.6H3.77797V14ZM8.73891 14H4.97891V3.92H8.49891V6.98H8.69891C8.91891 5.3 10.0189 3.72 12.7189 3.72C15.4389 3.72 16.7189 5.36 16.7189 7.54V14H12.9589V8.92C12.9589 7.52 12.4389 7.08 10.7989 7.08C9.13891 7.08 8.73891 7.5 8.73891 8.8V14ZM25.3705 14H22.7305C20.2105 14 18.7105 12.78 18.7105 10.16V7H17.2305V3.92H18.7105V2.18H22.4705V3.92H25.3705V7H22.4705V9.62C22.4705 10.42 22.7105 10.62 23.5705 10.62H25.3705V14ZM30.028 14H26.268V3.92H29.788V6.56H29.988C30.268 4.9 31.308 3.72 33.308 3.72C35.528 3.72 36.408 5.18 36.408 7.2V9.2H32.648V8.02C32.648 7.18 32.328 6.88 31.348 6.88C30.328 6.88 30.028 7.18 30.028 7.98V14ZM42.7855 14.2C39.2855 14.2 36.9055 12.22 36.9055 8.96C36.9055 5.68 39.2855 3.72 42.7855 3.72C46.2855 3.72 48.6655 5.68 48.6655 8.96C48.6655 12.22 46.2855 14.2 42.7855 14.2ZM42.7855 10.88C44.4855 10.88 44.9455 10.42 44.9455 8.96C44.9455 7.5 44.4855 7.02 42.7855 7.02C41.0855 7.02 40.6255 7.5 40.6255 8.96C40.6255 10.42 41.0855 10.88 42.7855 10.88ZM54.1488 14.2C51.0688 14.2 49.3688 12.22 49.3688 8.96C49.3688 5.68 51.0288 3.72 53.9888 3.72C56.3688 3.72 57.4888 4.84 57.7888 6.52H57.9888V0.6H61.7488V14H58.2288V11.28H58.0288C57.7088 13.28 56.5088 14.2 54.1488 14.2ZM53.1688 8.96C53.1688 10.3 53.7688 10.76 55.5088 10.76C57.1888 10.76 57.9888 10.44 57.9888 8.98V8.84C57.9888 7.42 57.1888 7.14 55.5088 7.14C53.7688 7.14 53.1688 7.62 53.1688 8.96ZM67.0877 14.2C64.2677 14.2 62.9477 12.56 62.9477 10.38V3.92H66.7077V9C66.7077 10.4 67.2477 10.84 68.9677 10.84C70.7077 10.84 71.1277 10.42 71.1277 9.12V3.92H74.8877V14H71.3677V10.94H71.1677C70.9477 12.62 69.8277 14.2 67.0877 14.2ZM81.6741 14.2C78.0941 14.2 75.8141 12.22 75.8141 8.96C75.8141 5.68 78.0941 3.72 81.6741 3.72C85.1141 3.72 87.3141 5.48 87.3141 8.18V8.5H83.5741V8.34C83.5741 7.3 82.8141 7.08 81.5941 7.08C80.2141 7.08 79.5541 7.38 79.5541 8.96C79.5541 10.52 80.2141 10.82 81.5941 10.82C82.8141 10.82 83.5741 10.62 83.5741 9.58V9.4H87.3141V9.74C87.3141 12.42 85.1141 14.2 81.6741 14.2ZM95.8588 14H93.2188C90.6988 14 89.1988 12.78 89.1988 10.16V7H87.7188V3.92H89.1988V2.18H92.9588V3.92H95.8588V7H92.9588V9.62C92.9588 10.42 93.1988 10.62 94.0588 10.62H95.8588V14ZM100.516 3H96.7563V0.6H100.516V3ZM100.516 14H96.7563V3.92H100.516V14ZM107.297 14.2C103.797 14.2 101.417 12.22 101.417 8.96C101.417 5.68 103.797 3.72 107.297 3.72C110.797 3.72 113.177 5.68 113.177 8.96C113.177 12.22 110.797 14.2 107.297 14.2ZM107.297 10.88C108.997 10.88 109.457 10.42 109.457 8.96C109.457 7.5 108.997 7.02 107.297 7.02C105.597 7.02 105.137 7.5 105.137 8.96C105.137 10.42 105.597 10.88 107.297 10.88ZM117.84 14H114.08V3.92H117.6V6.98H117.8C118.02 5.3 119.12 3.72 121.82 3.72C124.54 3.72 125.82 5.36 125.82 7.54V14H122.06V8.92C122.06 7.52 121.54 7.08 119.9 7.08C118.24 7.08 117.84 7.5 117.84 8.8V14ZM137.265 14H134.625C132.105 14 130.605 12.78 130.605 10.16V7H129.125V3.92H130.605V2.18H134.365V3.92H137.265V7H134.365V9.62C134.365 10.42 134.605 10.62 135.465 10.62H137.265V14ZM143.743 14.2C140.243 14.2 137.863 12.22 137.863 8.96C137.863 5.68 140.243 3.72 143.743 3.72C147.243 3.72 149.623 5.68 149.623 8.96C149.623 12.22 147.243 14.2 143.743 14.2ZM143.743 10.88C145.443 10.88 145.903 10.42 145.903 8.96C145.903 7.5 145.443 7.02 143.743 7.02C142.043 7.02 141.583 7.5 141.583 8.96C141.583 10.42 142.043 10.88 143.743 10.88ZM157.799 12.88C154.799 12.88 153.119 11.16 153.119 8.28C153.119 5.44 154.919 3.72 157.899 3.72C159.939 3.72 161.299 4.54 161.579 6.28H161.779V3.92H165.299V12.3C165.299 15.9 163.159 17.6 159.279 17.6C155.759 17.6 153.719 16.12 153.719 13.48H157.479C157.479 14.3 157.579 14.5 159.539 14.5C161.159 14.5 161.539 14.26 161.539 12.56V10.44H161.339C161.079 11.9 160.019 12.88 157.799 12.88ZM156.919 8.28C156.919 9.28 157.399 9.66 159.159 9.66C160.839 9.66 161.539 9.46 161.539 8.4V8.26C161.539 7.18 160.839 6.96 159.159 6.96C157.399 6.96 156.919 7.3 156.919 8.28ZM172.122 14.2C168.702 14.2 166.302 12.74 166.302 8.96C166.302 5.68 168.682 3.72 172.042 3.72C175.522 3.72 177.742 5.46 177.742 8.7C177.742 9.04 177.722 9.3 177.682 9.66H169.782C169.842 10.88 170.382 11.22 171.982 11.22C173.502 11.22 173.902 10.96 173.902 10.36V10.14H177.662V10.38C177.662 12.62 175.522 14.2 172.122 14.2ZM171.962 6.6C170.582 6.6 170.002 6.9 169.842 7.76H174.102C173.962 6.9 173.362 6.6 171.962 6.6ZM186.288 14H183.648C181.128 14 179.628 12.78 179.628 10.16V7H178.148V3.92H179.628V2.18H183.388V3.92H186.288V7H183.388V9.62C183.388 10.42 183.628 10.62 184.488 10.62H186.288V14ZM190.946 14H187.186V0.6H190.946V14ZM195.907 3H192.147V0.6H195.907V3ZM195.907 14H192.147V3.92H195.907V14ZM200.868 14H197.108V3.92H200.628V6.98H200.828C201.048 5.3 202.148 3.72 204.848 3.72C207.568 3.72 208.848 5.36 208.848 7.54V14H205.088V8.92C205.088 7.52 204.568 7.08 202.928 7.08C201.268 7.08 200.868 7.5 200.868 8.8V14ZM213.719 14H209.959V0.6H213.719V7.42H215.499L217.719 3.92H222.159L218.579 8.82L222.099 14H217.659L215.539 10.78H213.719V14ZM228.177 14.2C224.757 14.2 222.357 12.74 222.357 8.96C222.357 5.68 224.737 3.72 228.097 3.72C231.577 3.72 233.797 5.46 233.797 8.7C233.797 9.04 233.777 9.3 233.737 9.66H225.837C225.897 10.88 226.437 11.22 228.037 11.22C229.557 11.22 229.957 10.96 229.957 10.36V10.14H233.717V10.38C233.717 12.62 231.577 14.2 228.177 14.2ZM228.017 6.6C226.637 6.6 226.057 6.9 225.897 7.76H230.157C230.017 6.9 229.417 6.6 228.017 6.6ZM239.383 14.2C236.303 14.2 234.603 12.22 234.603 8.96C234.603 5.68 236.263 3.72 239.223 3.72C241.603 3.72 242.723 4.84 243.023 6.52H243.223V0.6H246.983V14H243.463V11.28H243.263C242.943 13.28 241.743 14.2 239.383 14.2ZM238.403 8.96C238.403 10.3 239.003 10.76 240.743 10.76C242.423 10.76 243.223 10.44 243.223 8.98V8.84C243.223 7.42 242.423 7.14 240.743 7.14C239.003 7.14 238.403 7.62 238.403 8.96Z" fill="white"/>
<path d="M36.1908 41H33.5508C31.0308 41 29.5308 39.78 29.5308 37.16V34H28.0508V30.92H29.5308V29.18H33.2908V30.92H36.1908V34H33.2908V36.62C33.2908 37.42 33.5308 37.62 34.3908 37.62H36.1908V41ZM42.7083 41.2C39.2883 41.2 36.8883 39.74 36.8883 35.96C36.8883 32.68 39.2683 30.72 42.6283 30.72C46.1083 30.72 48.3283 32.46 48.3283 35.7C48.3283 36.04 48.3083 36.3 48.2683 36.66H40.3683C40.4283 37.88 40.9683 38.22 42.5683 38.22C44.0883 38.22 44.4883 37.96 44.4883 37.36V37.14H48.2483V37.38C48.2483 39.62 46.1083 41.2 42.7083 41.2ZM42.5483 33.6C41.1683 33.6 40.5883 33.9 40.4283 34.76H44.6883C44.5483 33.9 43.9483 33.6 42.5483 33.6ZM54.9944 41.2C51.4144 41.2 49.1344 39.22 49.1344 35.96C49.1344 32.68 51.4144 30.72 54.9944 30.72C58.4344 30.72 60.6344 32.48 60.6344 35.18V35.5H56.8944V35.34C56.8944 34.3 56.1344 34.08 54.9144 34.08C53.5344 34.08 52.8744 34.38 52.8744 35.96C52.8744 37.52 53.5344 37.82 54.9144 37.82C56.1344 37.82 56.8944 37.62 56.8944 36.58V36.4H60.6344V36.74C60.6344 39.42 58.4344 41.2 54.9944 41.2ZM65.3991 41H61.6391V27.6H65.3991V33.98H65.5991C65.9191 32.28 67.0391 30.72 69.6191 30.72C72.2991 30.72 73.5791 32.42 73.5791 34.66V41H69.8191V35.92C69.8191 34.52 69.2791 34.08 67.5591 34.08C65.8191 34.08 65.3991 34.5 65.3991 35.8V41ZM81.2584 41H77.4984V27.6H81.2584V32.58H87.4984V27.6H91.2584V41H87.4984V35.96H81.2584V41ZM95.7194 41.2C93.4394 41.2 92.1594 40.16 92.1594 38.44C92.1594 37.02 93.1394 36 95.4194 35.78L99.5194 35.38V35.18C99.5194 34.16 99.0794 34 97.7394 34C96.4994 34 96.1194 34.24 96.1194 35.08V35.16H92.3594V35.12C92.3594 32.44 94.5994 30.72 98.0194 30.72C101.539 30.72 103.239 32.44 103.239 35.26V41H99.7194V38.88H99.5194C99.1394 40.3 97.8994 41.2 95.7194 41.2ZM95.9394 38.2C95.9394 38.52 96.2594 38.58 96.8394 38.58C98.6594 38.58 99.3994 38.36 99.4994 37.46L96.4194 37.82C96.0794 37.86 95.9394 37.98 95.9394 38.2ZM110.014 41.2C106.434 41.2 104.154 39.22 104.154 35.96C104.154 32.68 106.434 30.72 110.014 30.72C113.454 30.72 115.654 32.48 115.654 35.18V35.5H111.914V35.34C111.914 34.3 111.154 34.08 109.934 34.08C108.554 34.08 107.894 34.38 107.894 35.96C107.894 37.52 108.554 37.82 109.934 37.82C111.154 37.82 111.914 37.62 111.914 36.58V36.4H115.654V36.74C115.654 39.42 113.454 41.2 110.014 41.2ZM120.419 41H116.659V27.6H120.419V34.42H122.199L124.419 30.92H128.859L125.279 35.82L128.799 41H124.359L122.239 37.78H120.419V41ZM132.516 41.2C130.236 41.2 128.956 40.16 128.956 38.44C128.956 37.02 129.936 36 132.216 35.78L136.316 35.38V35.18C136.316 34.16 135.876 34 134.536 34C133.296 34 132.916 34.24 132.916 35.08V35.16H129.156V35.12C129.156 32.44 131.396 30.72 134.816 30.72C138.336 30.72 140.036 32.44 140.036 35.26V41H136.516V38.88H136.316C135.936 40.3 134.696 41.2 132.516 41.2ZM132.736 38.2C132.736 38.52 133.056 38.58 133.636 38.58C135.456 38.58 136.196 38.36 136.296 37.46L133.216 37.82C132.876 37.86 132.736 37.98 132.736 38.2ZM148.691 41H146.051C143.531 41 142.031 39.78 142.031 37.16V34H140.551V30.92H142.031V29.18H145.791V30.92H148.691V34H145.791V36.62C145.791 37.42 146.031 37.62 146.891 37.62H148.691V41ZM153.348 41H149.588V27.6H153.348V33.98H153.548C153.868 32.28 154.988 30.72 157.568 30.72C160.248 30.72 161.528 32.42 161.528 34.66V41H157.768V35.92C157.768 34.52 157.228 34.08 155.508 34.08C153.768 34.08 153.348 34.5 153.348 35.8V41ZM168.235 41.2C164.735 41.2 162.355 39.22 162.355 35.96C162.355 32.68 164.735 30.72 168.235 30.72C171.735 30.72 174.115 32.68 174.115 35.96C174.115 39.22 171.735 41.2 168.235 41.2ZM168.235 37.88C169.935 37.88 170.395 37.42 170.395 35.96C170.395 34.5 169.935 34.02 168.235 34.02C166.535 34.02 166.075 34.5 166.075 35.96C166.075 37.42 166.535 37.88 168.235 37.88ZM178.778 41H175.018V30.92H178.538V33.98H178.738C178.958 32.3 180.058 30.72 182.758 30.72C185.478 30.72 186.758 32.36 186.758 34.54V41H182.998V35.92C182.998 34.52 182.478 34.08 180.838 34.08C179.178 34.08 178.778 34.5 178.778 35.8V41ZM197.603 41H193.843V31.8H190.263V29.26H190.763C192.223 29.26 193.363 28.96 194.103 27.6H197.603V41ZM203.687 41H198.807V37.16H203.687V41ZM211.621 41.2C207.061 41.2 204.681 38.42 204.681 34.3C204.681 30.2 207.061 27.4 211.621 27.4C216.161 27.4 218.541 30.2 218.541 34.3C218.541 38.42 216.161 41.2 211.621 41.2ZM211.621 37.54C213.901 37.54 214.501 36.78 214.501 34.3C214.501 31.82 213.901 31.06 211.621 31.06C209.321 31.06 208.721 31.82 208.721 34.3C208.721 36.78 209.321 37.54 211.621 37.54Z" fill="#D434FE"/>
</svg>
