<svg width="86" height="15" viewBox="0 0 86 15" fill="none" xmlns="http://www.w3.org/2000/svg">
<path d="M8.8 14H5.04V3.98H0.3V0.6H13.52V3.98H8.8V14ZM18.1881 3H14.4281V0.6H18.1881V3ZM18.1881 14H14.4281V3.92H18.1881V14ZM23.1491 14H19.3891V3.92H22.9091V6.98H23.1091C23.3291 5.3 24.2491 3.72 26.7891 3.72C29.1691 3.72 30.3091 5.16 30.5091 6.98H30.7091C30.9291 5.3 31.8891 3.72 34.5091 3.72C37.0891 3.72 38.3091 5.36 38.3091 7.54V14H34.5491V8.92C34.5491 7.52 34.1491 7.08 32.5891 7.08C31.0491 7.08 30.7291 7.5 30.7291 8.8V14H26.9691V8.92C26.9691 7.52 26.5691 7.08 25.0091 7.08C23.4691 7.08 23.1491 7.5 23.1491 8.8V14ZM45.0481 14.2C41.6281 14.2 39.2281 12.74 39.2281 8.96C39.2281 5.68 41.6081 3.72 44.9681 3.72C48.4481 3.72 50.6681 5.46 50.6681 8.7C50.6681 9.04 50.6481 9.3 50.6081 9.66H42.7081C42.7681 10.88 43.3081 11.22 44.9081 11.22C46.4281 11.22 46.8281 10.96 46.8281 10.36V10.14H50.5881V10.38C50.5881 12.62 48.4481 14.2 45.0481 14.2ZM44.8881 6.6C43.5081 6.6 42.9281 6.9 42.7681 7.76H47.0281C46.8881 6.9 46.2881 6.6 44.8881 6.6ZM55.4342 14H51.6742V0.6H55.4342V14ZM60.3952 3H56.6352V0.6H60.3952V3ZM60.3952 14H56.6352V3.92H60.3952V14ZM65.3561 14H61.5961V3.92H65.1161V6.98H65.3161C65.5361 5.3 66.6361 3.72 69.3361 3.72C72.0561 3.72 73.3361 5.36 73.3361 7.54V14H69.5761V8.92C69.5761 7.52 69.0561 7.08 67.4161 7.08C65.7561 7.08 65.3561 7.5 65.3561 8.8V14ZM80.0677 14.2C76.6477 14.2 74.2477 12.74 74.2477 8.96C74.2477 5.68 76.6277 3.72 79.9877 3.72C83.4677 3.72 85.6877 5.46 85.6877 8.7C85.6877 9.04 85.6677 9.3 85.6277 9.66H77.7277C77.7877 10.88 78.3277 11.22 79.9277 11.22C81.4477 11.22 81.8477 10.96 81.8477 10.36V10.14H85.6077V10.38C85.6077 12.62 83.4677 14.2 80.0677 14.2ZM79.9077 6.6C78.5277 6.6 77.9477 6.9 77.7877 7.76H82.0477C81.9077 6.9 81.3077 6.6 79.9077 6.6Z" fill="white"/>
</svg>
